<svg version="1.1" id="Layer_1" xmlns="http://www.w3.org/2000/svg" xmlns:xlink="http://www.w3.org/1999/xlink" x="0px" y="0px"
	 width="100%" viewBox="0 0 2047 1310" enable-background="new 0 0 2047 1310" xml:space="preserve">
<path fill="#000000" opacity="1.000000" stroke="none" 
	d="
M1106.000000,1311.000000 
	C737.333435,1311.000000 369.166901,1311.000000 1.000247,1311.000000 
	C1.000165,874.333557 1.000165,437.667145 1.000082,1.000540 
	C683.332886,1.000360 1365.665771,1.000360 2047.999023,1.000180 
	C2047.999268,437.666107 2047.999268,874.332214 2047.999634,1310.999146 
	C1734.166626,1311.000000 1420.333374,1311.000000 1106.000000,1311.000000 
M937.910156,685.927856 
	C945.260803,685.898071 952.611389,685.868286 960.899475,685.938232 
	C969.585693,685.913940 978.271912,685.889648 987.864990,685.943359 
	C1008.885681,685.630920 1027.038940,678.260376 1042.500977,664.013611 
	C1054.678101,652.793579 1063.314941,639.020264 1071.080322,624.655701 
	C1077.389038,612.985657 1083.066162,600.974426 1089.361084,589.296570 
	C1105.763428,558.868896 1122.349487,528.540161 1138.866211,498.174133 
	C1151.261108,475.386200 1163.681152,452.612030 1176.046509,429.808167 
	C1179.255005,423.891327 1182.300293,417.886108 1185.833496,411.132080 
	C1182.124146,411.132080 1179.034790,411.132080 1175.019409,411.075134 
	C1165.666626,411.099823 1156.313843,411.124542 1146.032959,411.078491 
	C1141.372437,411.053741 1136.710571,410.943176 1132.051758,411.022064 
	C1122.369995,411.186066 1114.418579,413.688660 1110.275391,423.950592 
	C1107.401733,431.067780 1102.923096,437.539551 1099.133057,444.283569 
	C1087.773804,464.496155 1076.388428,484.694061 1065.038208,504.911682 
	C1059.787720,514.263916 1054.595093,523.648621 1048.585571,534.438416 
	C1046.182983,530.902405 1044.510010,528.440002 1042.859009,525.262512 
	C1039.416138,518.617676 1035.973267,511.972839 1032.203735,504.747101 
	C1029.079346,498.826538 1025.955078,492.905975 1022.653259,486.321869 
	C1018.788940,479.185089 1014.924561,472.048279 1010.900452,464.226044 
	C1006.643616,456.466888 1002.386780,448.707733 998.023071,440.194946 
	C995.164368,431.100739 990.688965,422.932526 984.124695,415.215637 
	C978.399597,409.312927 972.472046,403.715027 963.640625,401.267670 
	C957.462524,398.252899 950.871338,397.663605 943.631531,397.221527 
	C932.749390,397.202820 921.867249,397.184113 910.057068,397.040039 
	C901.387329,396.988678 892.717651,396.937347 883.994934,396.072906 
	C882.654602,391.443298 881.615051,386.700104 879.917664,382.205322 
	C874.757141,368.539703 867.229675,356.115082 857.552673,345.301453 
	C847.664490,334.251953 837.020264,323.687378 823.446167,317.088104 
	C812.859985,311.941437 802.038147,307.162201 790.988892,303.129883 
	C784.506348,300.764191 777.428711,299.702484 770.520569,298.905182 
	C759.800842,297.667938 748.997253,297.156860 737.880066,296.311340 
	C737.880066,315.547241 737.880066,333.625763 737.880066,352.152161 
	C736.332703,352.152161 735.034851,352.152161 733.737000,352.152161 
	C711.578491,352.152130 689.413513,351.866516 667.266113,352.362854 
	C662.054199,352.479645 656.409790,354.370667 651.835693,356.975586 
	C644.812317,360.975403 641.131226,368.026306 638.653381,375.688751 
	C635.476318,385.513367 633.364075,395.424744 634.209900,406.263672 
	C669.143188,406.263672 703.547302,406.263672 737.915771,406.263672 
	C737.915771,421.982147 737.915771,437.252472 737.915771,452.999786 
	C735.898132,452.999786 734.109924,452.999756 732.321777,452.999725 
	C709.830017,452.999512 687.338318,452.991364 664.846558,453.004272 
	C658.678528,453.007812 653.391907,455.235382 648.974976,459.519867 
	C635.828003,472.272644 634.783447,488.822601 633.773804,506.070801 
	C668.930786,506.070801 703.331909,506.070801 738.270935,506.070801 
	C738.270935,524.571594 738.270935,542.628601 738.270935,561.539978 
	C750.226807,560.952087 761.606201,560.392578 773.796753,559.963135 
	C785.192627,556.586670 796.588440,553.210144 808.689941,549.769897 
	C815.238708,546.270752 822.388794,543.555420 828.201111,539.096436 
	C837.938354,531.626282 847.357788,523.567383 855.929321,514.796875 
	C866.443665,504.038239 874.491028,491.374847 879.447327,477.004303 
	C882.492737,468.174438 885.291809,459.259583 888.411438,449.742218 
	C894.859375,450.082916 901.920593,450.456024 909.802490,450.984863 
	C916.185913,452.361053 922.569397,453.737274 929.318054,455.725006 
	C935.880676,458.146118 941.611938,461.641632 944.975281,468.699249 
	C949.853699,477.761963 954.732178,486.824677 959.884644,496.474884 
	C964.137329,504.276489 968.390015,512.078064 972.890503,520.479370 
	C976.315857,526.975403 979.741211,533.471497 983.301147,540.652161 
	C986.588867,546.757690 989.876587,552.863281 993.315857,559.648438 
	C996.597290,565.752930 999.878723,571.857483 1003.345642,578.599854 
	C1007.611511,584.766418 1013.872925,586.992920 1021.149902,587.275818 
	C1021.149902,588.673645 1021.149902,589.812805 1020.781738,591.594543 
	C1018.820190,597.690369 1016.316040,603.672607 1015.011414,609.905945 
	C1012.385315,622.452698 1005.242859,630.417786 992.047607,633.981995 
	C985.017273,634.050415 977.987000,634.118835 970.029724,634.100220 
	C964.541138,634.068542 959.052124,633.976807 953.564087,634.017883 
	C942.831360,634.098267 937.947998,637.751465 935.904358,648.214233 
	C933.912354,658.412842 932.492981,668.728027 931.003662,679.018311 
	C929.982178,686.076782 930.121033,686.096863 937.910156,685.927856 
M1359.500000,593.999634 
	C1375.612915,593.999634 1391.725952,593.999634 1407.841431,593.999634 
	C1407.916870,592.726440 1408.071777,592.046143 1407.978516,591.401733 
	C1406.318481,579.934326 1405.045410,568.389526 1402.818726,557.032043 
	C1400.887207,547.181091 1397.191406,542.019714 1384.473999,542.008301 
	C1355.810547,541.982483 1327.146973,542.050598 1298.483765,541.954529 
	C1293.222656,541.936890 1287.796509,542.014648 1282.750488,540.793030 
	C1277.690063,539.567871 1272.109619,537.789368 1268.347290,534.457642 
	C1260.098145,527.152527 1258.042236,517.136414 1259.287842,506.000000 
	C1261.366577,506.000000 1263.167114,506.000000 1264.967773,506.000000 
	C1309.462769,505.999878 1353.957886,506.074646 1398.452515,505.949188 
	C1410.166992,505.916168 1414.802368,500.666870 1414.797729,491.309937 
	C1414.787842,471.179230 1416.602417,450.971924 1412.117676,430.943756 
	C1407.864258,411.948364 1397.571045,397.445099 1381.393066,387.216370 
	C1366.460327,377.775024 1349.509033,373.790436 1332.162964,373.223358 
	C1312.764404,372.589203 1293.301392,373.411469 1273.882690,374.075897 
	C1259.694580,374.561401 1246.240234,378.376465 1233.651855,385.061859 
	C1218.337158,393.195190 1207.951050,405.631348 1202.016479,421.774689 
	C1196.603394,436.499146 1195.910767,451.945587 1196.052979,467.400116 
	C1196.265869,490.546082 1194.235596,513.842468 1199.098877,536.736877 
	C1202.013916,550.459595 1208.327759,562.800293 1218.862671,572.214417 
	C1235.886353,587.427124 1257.146362,592.712097 1279.022339,593.717834 
	C1305.463257,594.933533 1332.003052,594.001892 1359.500000,593.999634 
M578.001099,815.500000 
	C578.001099,843.236877 578.001099,870.973755 578.001099,898.622620 
	C583.110962,898.622620 587.355408,898.622620 592.220642,898.622620 
	C592.220642,882.425720 592.220642,866.594971 592.220642,850.120972 
	C617.948364,877.261108 652.505432,868.770813 667.574219,855.940979 
	C692.816223,834.449585 693.543884,797.882568 675.338806,774.939087 
	C666.051941,763.235107 653.217102,756.992920 638.789062,755.265076 
	C620.870728,753.119324 605.017761,758.546936 591.827393,773.764648 
	C591.827393,767.488831 591.827393,762.935364 591.827393,758.324097 
	C586.997559,758.324097 582.753052,758.324097 578.001099,758.324097 
	C578.001099,777.261902 578.001099,795.880920 578.001099,815.500000 
M1758.000000,812.408936 
	C1758.328491,841.199280 1780.326660,864.903320 1807.246338,867.891113 
	C1836.954712,871.188477 1858.250244,852.783752 1865.610596,831.000793 
	C1861.848877,831.000793 1858.188232,831.234802 1854.571777,830.934509 
	C1851.015991,830.639221 1849.157227,831.812683 1847.278442,835.065857 
	C1838.304199,850.605957 1821.750732,856.975403 1805.450806,853.505066 
	C1786.072632,849.379272 1774.819824,835.777100 1773.720703,815.818298 
	C1805.647461,815.818298 1837.546875,815.818298 1870.155151,815.818298 
	C1869.719360,811.459717 1869.484619,807.729675 1868.952393,804.042542 
	C1867.234497,792.140625 1863.311890,780.976013 1855.229614,771.977722 
	C1851.269653,767.568848 1846.079712,763.990540 1840.882324,761.025146 
	C1830.465454,755.081726 1819.180176,753.289917 1807.125977,754.879578 
	C1795.825439,756.369812 1785.530273,760.193726 1777.089233,767.540710 
	C1763.926880,778.997070 1757.926025,794.026794 1758.000000,812.408936 
M1271.519165,840.984924 
	C1265.611328,848.303650 1257.541870,852.493958 1248.664429,853.777832 
	C1235.011719,855.752441 1222.528931,852.147278 1212.691528,841.844177 
	C1205.990234,834.825684 1202.855347,826.237000 1201.829224,815.935913 
	C1234.159912,815.935913 1265.876099,815.935913 1297.530029,815.935913 
	C1299.729614,787.982056 1283.668945,756.452026 1245.670532,754.296204 
	C1219.410156,752.806396 1191.875244,767.940613 1187.258423,802.569153 
	C1182.804077,835.979248 1204.001221,863.792114 1235.712524,867.787476 
	C1265.196045,871.502075 1287.587646,853.208191 1293.937988,831.000610 
	C1291.717407,831.000610 1289.542236,831.174316 1287.403931,830.967102 
	C1281.704346,830.414673 1276.674683,830.826172 1274.661987,837.536072 
	C1274.319580,838.677368 1272.927490,839.503784 1271.519165,840.984924 
M474.868134,808.845215 
	C474.578522,807.233215 474.201050,805.631348 474.012878,804.007568 
	C472.144501,787.884583 465.457397,774.363525 452.192535,764.647949 
	C440.708527,756.236572 427.813934,753.513428 413.600555,754.880615 
	C394.220825,756.744690 378.908722,765.503296 370.443481,782.695923 
	C359.954865,803.998047 360.144684,825.745667 374.952820,845.679810 
	C389.683533,865.509644 410.533875,871.761597 434.102203,866.302795 
	C446.266357,863.485413 455.581757,855.993469 463.005157,846.294861 
	C466.363190,841.907349 468.687622,836.728882 472.000214,831.013367 
	C466.097382,831.013367 461.767517,830.818359 457.474731,831.131592 
	C456.178619,831.226074 454.539032,832.454590 453.813171,833.630554 
	C445.477905,847.134827 433.825073,854.006165 417.598969,854.150818 
	C396.893066,854.335327 378.011780,835.397888 379.066254,815.732178 
	C410.925720,815.732178 442.816223,815.732178 474.965332,815.732178 
	C474.965332,813.387268 474.965332,811.567383 474.868134,808.845215 
M1517.999512,829.500000 
	C1517.999512,805.766907 1517.999512,782.033813 1517.999512,758.368103 
	C1512.900757,758.368103 1508.657593,758.368103 1503.730225,758.368103 
	C1503.730225,763.389709 1503.730225,768.052673 1503.730225,773.545288 
	C1485.345215,750.593811 1447.844604,747.688049 1423.483765,771.394226 
	C1406.163940,788.248779 1401.341187,820.621948 1417.461426,844.708252 
	C1426.515991,858.237305 1439.905762,865.957886 1456.328613,867.620789 
	C1474.934326,869.504639 1490.960815,864.211853 1504.180542,848.362488 
	C1504.180542,854.850037 1504.180542,859.735779 1504.180542,864.674927 
	C1509.008301,864.674927 1513.251221,864.674927 1517.999512,864.674927 
	C1517.999512,853.072021 1517.999512,841.786011 1517.999512,829.500000 
M918.897095,807.915527 
	C916.201477,799.669128 910.823303,793.579041 903.028015,790.117615 
	C894.486328,786.324707 885.618774,783.263977 876.883728,779.908813 
	C863.817322,774.890015 856.543152,768.736023 859.005859,752.176514 
	C860.709900,740.718201 873.791870,732.506897 884.688660,734.344482 
	C896.085938,736.266479 901.264465,743.793579 903.135315,754.522583 
	C903.414246,756.122192 904.871399,758.592773 906.053284,758.760559 
	C909.883179,759.304199 913.838501,758.963562 918.016846,758.963562 
	C917.607483,755.715881 917.426697,753.265686 916.974060,750.866882 
	C914.993591,740.369568 910.940979,730.921265 901.354065,725.244812 
	C891.699707,719.528259 881.080750,719.111572 870.475464,721.960754 
	C866.119873,723.130859 861.472900,724.854065 858.081543,727.675659 
	C846.810791,737.052673 842.163818,749.166809 843.848755,764.047668 
	C845.398132,777.731323 853.038086,785.970337 865.049316,791.073975 
	C873.333740,794.594055 881.971252,797.426758 889.893860,801.619446 
	C900.428223,807.194336 907.555420,815.497986 905.979065,828.605408 
	C904.873291,837.800232 898.354431,849.542297 887.266052,851.370728 
	C875.625183,853.290344 864.621338,851.797791 858.502014,840.650452 
	C855.831299,835.785156 854.713013,830.067566 852.774170,824.399170 
	C849.054443,824.399170 844.674194,824.399170 840.133606,824.399170 
	C839.622192,833.241211 841.365601,841.500854 845.450623,848.564270 
	C851.390381,858.834595 860.352173,865.572998 872.732971,867.464905 
	C892.906067,870.547546 908.980103,860.959351 916.512512,844.470398 
	C921.591187,833.352783 922.373779,820.946350 918.897095,807.915527 
M513.523682,736.850891 
	C522.729553,731.921021 534.132874,733.623779 539.085083,740.835144 
	C542.144775,745.290649 543.655945,750.792358 546.053467,755.731628 
	C546.665771,756.993103 547.914551,758.700500 549.025818,758.825439 
	C552.565857,759.223572 556.178955,758.972961 560.157227,758.972961 
	C559.609497,744.802246 555.720276,733.067993 543.945923,725.519348 
	C534.593201,719.523193 524.207336,719.445435 513.585815,721.685974 
	C502.574280,724.008789 495.262878,730.654541 490.228271,740.391663 
	C486.785950,747.049316 485.655670,754.051270 485.966309,761.466248 
	C486.493195,774.042358 492.131622,783.502380 503.384033,788.986267 
	C511.335907,792.861633 519.789062,795.701416 527.984680,799.085327 
	C538.749817,803.530090 550.884277,814.580383 548.182312,829.496948 
	C544.732422,848.541382 531.341187,854.793091 514.649536,851.194214 
	C503.733521,848.840515 499.315430,839.686584 496.912781,829.831421 
	C496.409027,827.765137 495.139893,824.612366 493.707153,824.295654 
	C490.096313,823.497437 486.190979,824.031372 481.869171,824.031372 
	C482.316101,826.734924 482.906158,828.777466 482.950775,830.831726 
	C483.173737,841.101746 487.511139,849.665649 494.422150,856.792175 
	C505.210541,867.917114 518.762268,870.240967 533.240601,866.700928 
	C545.619507,863.674194 554.720825,855.791260 558.885193,843.743225 
	C561.361938,836.577515 562.421509,828.713379 562.854126,821.091553 
	C563.856201,803.435303 554.732178,793.186401 539.059204,786.967041 
	C531.142273,783.825378 523.053711,781.119019 515.100586,778.065247 
	C508.878845,775.676331 504.045959,771.832092 501.909973,765.113464 
	C498.523560,754.461853 502.032318,745.207947 513.523682,736.850891 
M184.000824,796.500000 
	C184.000824,819.238037 184.000824,841.976135 184.000824,864.627319 
	C209.108963,864.627319 233.348404,864.627319 257.676392,864.627319 
	C257.676392,859.675720 257.676392,855.099426 257.676392,849.826904 
	C237.664703,849.826904 217.964706,849.826904 198.378647,849.826904 
	C198.378647,833.213440 198.378647,817.304749 198.378647,800.882751 
	C218.330490,800.882751 237.909607,800.882751 257.557312,800.882751 
	C257.557312,795.989319 257.557312,791.630188 257.557312,786.759277 
	C237.541840,786.759277 217.963684,786.759277 198.321960,786.759277 
	C198.321960,769.994568 198.321960,753.753967 198.321960,736.819702 
	C218.335144,736.819702 238.037445,736.819702 257.613586,736.819702 
	C257.613586,731.872009 257.613586,727.627441 257.613586,723.326172 
	C232.988480,723.326172 208.750122,723.326172 184.000824,723.326172 
	C184.000824,747.598389 184.000824,771.549194 184.000824,796.500000 
M1025.998657,799.500000 
	C1025.998657,785.761475 1025.998657,772.023010 1025.998657,758.377563 
	C1020.553589,758.377563 1015.977539,758.377563 1011.001221,758.377563 
	C1011.001221,760.556396 1011.001221,762.361084 1011.001221,764.165771 
	C1011.000977,783.319885 1011.100464,802.475037 1010.913574,821.627319 
	C1010.877625,825.309631 1009.937988,829.035889 1009.039307,832.648254 
	C1004.186768,852.153687 986.112915,856.100525 970.760010,853.576782 
	C964.929810,852.618408 959.021362,849.702393 955.898560,843.781616 
	C952.342896,837.040222 949.882996,830.026123 949.943054,822.176758 
	C950.092102,802.691101 949.961975,783.203247 949.923828,763.716309 
	C949.920349,761.947083 949.772156,760.178101 949.687744,758.334717 
	C944.601379,758.334717 940.032104,758.334717 935.588074,758.334717 
	C935.339905,758.962524 935.118286,759.260986 935.118835,759.559021 
	C935.168884,784.775696 933.744324,810.046814 937.105957,835.154175 
	C938.279907,843.922729 941.284851,852.973267 948.184387,858.241089 
	C963.612793,870.020630 981.196472,871.176636 999.045349,863.827148 
	C1003.269531,862.087769 1006.776306,858.606079 1011.211792,855.507690 
	C1011.211792,858.861267 1011.211792,861.746338 1011.211792,864.667786 
	C1016.356506,864.667786 1020.932007,864.667786 1025.998657,864.667786 
	C1025.998657,843.060059 1025.998657,821.780029 1025.998657,799.500000 
M1672.532471,847.026489 
	C1671.452881,846.275574 1670.253540,845.650574 1669.311890,844.754639 
	C1656.239746,832.317139 1650.916382,810.922302 1658.809937,793.057495 
	C1667.577148,773.215332 1687.314819,763.504517 1708.736206,770.904602 
	C1717.557983,773.952209 1723.903320,779.709961 1728.796875,787.442078 
	C1729.683594,788.843140 1731.208008,790.668213 1732.571899,790.789307 
	C1737.246704,791.204468 1741.981079,790.948608 1746.952515,790.948608 
	C1736.535034,763.048218 1710.506104,749.161987 1682.138794,756.098267 
	C1657.156860,762.206787 1635.113403,787.274414 1641.011108,822.774109 
	C1644.883789,846.084534 1666.699829,866.926147 1692.359619,868.178101 
	C1722.676636,869.657104 1742.632935,848.374634 1746.479614,831.000854 
	C1742.760986,831.000854 1739.092041,831.212769 1735.459717,830.938049 
	C1732.177002,830.689758 1730.756836,832.242310 1728.863037,834.775085 
	C1725.255737,839.599365 1721.387207,844.816101 1716.410400,847.916748 
	C1702.172363,856.787415 1687.438965,856.492065 1672.532471,847.026489 
M342.126678,814.721863 
	C349.821106,796.036804 357.515503,777.351746 365.404846,758.193237 
	C359.127991,758.193237 353.833069,758.193237 348.516479,758.193237 
	C337.232056,786.405212 326.010895,814.459045 314.515533,843.198425 
	C307.814178,825.785156 301.378479,809.142212 295.006226,792.475037 
	C290.963837,781.901855 287.067017,771.272583 282.949524,760.729126 
	C282.516022,759.619080 281.073273,758.212830 280.027283,758.150879 
	C275.323853,757.872253 270.594604,758.029358 265.709625,758.029358 
	C266.788208,761.104370 267.589111,763.585205 268.521667,766.015381 
	C276.264282,786.192505 284.053680,806.351685 291.781769,826.534302 
	C295.953644,837.429626 299.595856,848.557312 304.379242,859.173706 
	C306.180542,863.171631 306.012451,865.797974 304.359619,869.530151 
	C300.135529,879.068665 296.483185,888.860352 292.426422,898.989380 
	C297.032074,898.989380 301.194580,899.225098 305.302246,898.853943 
	C306.632050,898.733704 308.373474,897.280884 308.973328,895.993469 
	C311.522461,890.522278 313.747406,884.898010 316.029633,879.304688 
	C324.705292,858.042114 333.357178,836.769714 342.126678,814.721863 
M1579.788574,755.002258 
	C1568.720215,756.509949 1558.517456,759.979065 1549.759766,769.578003 
	C1549.759766,764.785461 1549.759766,761.553955 1549.759766,758.348999 
	C1545.278687,758.348999 1541.367432,758.348999 1537.290527,758.348999 
	C1537.290527,793.938599 1537.290527,829.179565 1537.290527,864.585632 
	C1541.614136,864.585632 1545.640869,864.585632 1549.999268,864.585632 
	C1549.999268,862.524902 1549.975830,860.876221 1550.003052,859.228394 
	C1550.331055,839.286194 1550.446655,819.336792 1551.116821,799.406006 
	C1551.359253,792.194336 1553.025146,785.138916 1558.115356,779.325378 
	C1567.416626,768.702698 1583.492188,767.237732 1595.459351,771.368958 
	C1598.617676,772.459229 1601.937866,774.371033 1604.082275,776.856018 
	C1609.611206,783.263367 1612.093262,790.965149 1612.039673,799.555115 
	C1611.916016,819.384888 1612.001099,839.216064 1612.001465,859.046631 
	C1612.001465,860.949524 1612.001587,862.852478 1612.001587,864.595093 
	C1617.171753,864.595093 1621.413696,864.595093 1625.999268,864.595093 
	C1625.999268,862.549377 1626.018921,860.901489 1625.996460,859.254089 
	C1625.666626,835.146362 1625.701782,811.025024 1624.818970,786.937500 
	C1624.453857,776.976257 1619.040527,768.582642 1610.755249,763.111572 
	C1601.817871,757.209900 1591.614990,754.416199 1579.788574,755.002258 
M999.680115,942.039062 
	C998.781189,940.196777 997.882263,938.354553 996.888306,936.317444 
	C994.010681,936.317444 990.761047,936.317444 987.427979,936.317444 
	C987.427979,961.998535 987.427979,987.360291 987.427979,1012.624634 
	C991.109070,1012.624634 994.357483,1012.624634 997.474731,1012.624634 
	C997.700623,1011.945129 997.891113,1011.638367 997.892090,1011.330933 
	C997.938354,996.836731 998.124573,982.340759 997.959717,967.848694 
	C997.759827,950.281433 1010.585754,942.113647 1027.120850,945.521912 
	C1034.597534,947.062988 1038.146729,952.275818 1039.924072,958.812500 
	C1040.984131,962.711365 1040.922974,966.977417 1040.956787,971.081787 
	C1041.070190,984.863342 1040.999756,998.646301 1040.999756,1012.594604 
	C1044.599731,1012.594604 1047.625854,1012.594604 1050.999634,1012.594604 
	C1050.999634,999.550110 1050.888550,986.905762 1051.058105,974.265076 
	C1051.119995,969.653625 1051.402222,964.954895 1052.367798,960.464600 
	C1054.364380,951.181580 1063.316284,944.877319 1072.542480,944.763550 
	C1084.881836,944.611389 1090.557373,950.088074 1092.383545,957.853638 
	C1093.206421,961.353638 1093.878662,964.977539 1093.928711,968.554932 
	C1094.110718,981.548706 1093.990967,994.546509 1094.012329,1007.542786 
	C1094.015259,1009.288391 1094.174683,1011.033691 1094.252686,1012.601685 
	C1097.826050,1012.601685 1100.737305,1012.601685 1102.976685,1012.601685 
	C1102.976685,994.118774 1103.536499,976.013977 1102.735352,957.969604 
	C1102.347168,949.226257 1098.063477,941.114502 1089.388306,937.395508 
	C1080.487061,933.579529 1070.843140,933.408630 1061.820190,936.852844 
	C1056.494385,938.885803 1051.920044,942.887451 1046.838867,946.110962 
	C1031.100220,932.210022 1013.189514,930.422607 999.680115,942.039062 
M952.843933,935.077271 
	C944.504761,935.364075 935.805481,933.285583 928.109314,938.053833 
	C924.231567,940.456299 920.800781,943.580139 917.002686,946.505005 
	C910.621460,939.583130 903.238098,934.924194 893.064575,934.831421 
	C883.369141,934.743103 874.540344,936.050049 867.236511,944.037292 
	C867.023193,940.777649 866.884460,938.657837 866.736389,936.395020 
	C863.440613,936.395020 860.403687,936.395020 857.318848,936.395020 
	C857.318848,962.025146 857.318848,987.259827 857.318848,1012.557861 
	C860.673401,1012.557861 863.698242,1012.557861 867.999390,1012.557861 
	C867.999390,996.523376 868.026062,980.923096 867.988220,965.322937 
	C867.968933,957.359009 871.114136,950.970093 878.252136,947.473816 
	C886.184143,943.588562 894.570923,943.260498 902.380127,948.018738 
	C909.982666,952.651001 910.653381,960.731934 910.890259,968.418213 
	C911.290161,981.397156 910.991333,994.397278 911.010925,1007.388489 
	C911.013611,1009.153137 911.158020,1010.917542 911.235962,1012.661682 
	C914.704041,1012.661682 917.618469,1012.661682 920.999695,1012.661682 
	C920.999695,1010.540222 920.999634,1008.740356 920.999695,1006.940491 
	C920.999878,993.283081 920.805847,979.621887 921.072754,965.969666 
	C921.234131,957.715088 925.011047,950.715881 932.370911,947.106689 
	C939.845703,943.441284 948.245605,943.108887 955.488770,947.982239 
	C961.981079,952.350220 963.739197,959.700317 963.910461,967.045532 
	C964.224731,980.529053 963.991821,994.025208 964.012756,1007.516052 
	C964.015503,1009.267700 964.171387,1011.019043 964.248657,1012.612793 
	C967.798523,1012.612793 970.711975,1012.612793 973.029663,1012.612793 
	C973.029663,994.825562 973.659424,977.399353 972.813049,960.045166 
	C972.227478,948.039001 966.160767,938.825867 952.843933,935.077271 
M1139.121704,835.558289 
	C1138.300293,837.564209 1137.478882,839.570068 1136.382935,842.246521 
	C1135.347168,840.380188 1134.582153,839.307312 1134.116089,838.117432 
	C1124.008545,812.312866 1113.963257,786.483765 1103.760132,760.717163 
	C1103.293701,759.539368 1101.518188,758.242676 1100.256348,758.135681 
	C1096.319580,757.801758 1092.336426,758.013123 1087.866211,758.013123 
	C1088.451294,760.292847 1088.720337,762.069580 1089.354614,763.704651 
	C1101.217651,794.281738 1113.131836,824.838806 1125.015991,855.407593 
	C1128.912720,865.431213 1129.327515,865.809998 1139.215698,864.899231 
	C1140.528564,864.778381 1142.381226,863.698120 1142.876343,862.574280 
	C1147.713989,851.591553 1152.385620,840.533875 1156.968872,829.441345 
	C1163.407471,813.858154 1169.754761,798.237061 1176.093140,782.612732 
	C1179.345825,774.595032 1182.494507,766.535217 1185.886230,758.000854 
	C1182.158203,758.000854 1178.813110,758.343994 1175.569580,757.916260 
	C1171.261719,757.348145 1169.384155,759.349854 1168.015869,763.060181 
	C1165.182983,770.742859 1162.043457,778.312561 1159.020020,785.924805 
	C1152.533325,802.256958 1146.040283,818.586670 1139.121704,835.558289 
M547.429688,947.020508 
	C540.792786,955.303589 537.902283,964.699707 537.921021,975.357666 
	C537.966614,1001.283203 563.130371,1021.845459 589.526611,1012.555420 
	C595.321960,1010.515869 600.427856,1006.517273 606.176025,1003.235413 
	C606.176025,1006.183472 606.176025,1009.400574 606.176025,1012.688049 
	C609.656311,1012.688049 612.567993,1012.688049 615.609192,1012.688049 
	C615.609192,979.034851 615.609192,945.694031 615.609192,912.336060 
	C612.301086,912.336060 609.387634,912.336060 605.879517,912.336060 
	C605.879517,923.830688 605.879517,935.003479 605.879517,946.779846 
	C587.147644,927.540405 560.289124,933.057312 547.429688,947.020508 
M1378.828979,964.472656 
	C1375.516724,982.080200 1378.884766,998.340698 1394.348389,1008.190430 
	C1411.866699,1019.348816 1429.878174,1017.307068 1446.334961,1001.805725 
	C1446.334961,1006.300842 1446.334961,1009.534119 1446.334961,1012.598999 
	C1449.804199,1012.598999 1452.713745,1012.598999 1455.675537,1012.598999 
	C1455.675537,986.974487 1455.675537,961.751282 1455.675537,936.430054 
	C1452.310791,936.430054 1449.283447,936.430054 1445.861328,936.430054 
	C1445.861328,939.941345 1445.861328,943.023865 1445.861328,947.326233 
	C1434.729126,935.044128 1421.558472,931.859192 1407.081543,935.604431 
	C1392.552490,939.363342 1382.609253,948.539246 1378.828979,964.472656 
M676.820190,971.538452 
	C673.586487,955.493713 677.609802,941.529236 689.434082,930.218445 
	C695.355164,924.554382 702.887634,920.942444 710.958374,920.170105 
	C725.827026,918.747192 738.525696,923.462524 747.667297,935.982971 
	C748.357361,936.928162 749.771545,937.803223 750.905701,937.880493 
	C754.468689,938.123596 758.058777,937.970093 761.888550,937.970093 
	C753.300903,917.757568 729.004944,904.750854 705.222046,910.256775 
	C680.444580,915.992920 660.078674,938.292542 665.104858,971.660217 
	C668.602478,994.879761 687.469116,1014.176819 715.630981,1014.982117 
	C734.473694,1015.520935 758.723083,1000.662170 760.628662,987.547485 
	C753.325500,985.483826 747.650452,987.512207 742.831787,993.550720 
	C733.002869,1005.867920 711.499512,1006.963196 699.433411,1000.890076 
	C687.896484,995.083374 679.315125,985.934509 676.820190,971.538452 
M421.584137,912.422302 
	C417.288757,912.422302 412.993378,912.422302 408.402527,912.422302 
	C395.553192,945.584839 382.631256,978.934814 369.626343,1012.498901 
	C380.294586,1013.778442 380.412140,1013.825806 383.927185,1005.098022 
	C386.442322,998.853027 388.800385,992.526184 390.819489,986.107117 
	C391.991547,982.380920 393.776581,980.814636 397.856689,980.908752 
	C409.177216,981.170044 420.515686,981.242737 431.830139,980.872864 
	C436.028015,980.735657 437.717010,982.522827 438.938446,985.966309 
	C441.246826,992.473999 443.614319,998.964966 446.150146,1005.386658 
	C449.426788,1013.684387 449.508423,1013.655029 458.667328,1012.889404 
	C458.973541,1012.863770 459.264801,1012.658813 460.315430,1012.231262 
	C447.541962,979.216797 434.763885,946.190491 421.584137,912.422302 
M774.453552,953.000610 
	C763.909607,972.046448 767.560608,996.009583 787.219421,1008.795837 
	C804.817627,1020.241882 829.917358,1016.755737 842.200500,995.052551 
	C853.294495,975.450562 850.106140,952.476685 827.499634,938.673035 
	C812.124634,929.285095 787.521484,931.296143 774.453552,953.000610 
M1541.953003,1006.508728 
	C1552.386475,1015.560303 1564.809937,1017.275391 1577.139160,1013.176086 
	C1599.175537,1005.849426 1608.200439,986.792664 1604.481689,965.095581 
	C1601.414795,947.201843 1583.531128,933.388855 1564.508911,933.628296 
	C1548.411377,933.830994 1533.390625,946.822815 1528.594360,959.940979 
	C1525.650757,967.992065 1525.128662,976.395630 1527.412720,984.697266 
	C1529.762939,993.239807 1533.969238,1000.753540 1541.953003,1006.508728 
M1359.997192,834.500000 
	C1359.997192,797.459412 1359.997192,760.418762 1359.997192,723.331421 
	C1354.638428,723.331421 1350.064697,723.331421 1345.388184,723.331421 
	C1345.388184,770.648010 1345.388184,817.633362 1345.388184,864.668945 
	C1350.353882,864.668945 1354.927734,864.668945 1359.997192,864.668945 
	C1359.997192,854.731018 1359.997192,845.115540 1359.997192,834.500000 
M1181.999146,976.500000 
	C1181.999146,963.096069 1181.999146,949.692200 1181.999146,936.362793 
	C1177.907349,936.362793 1174.663208,936.362793 1171.553223,936.362793 
	C1171.318481,937.025757 1171.117676,937.329346 1171.116699,937.633606 
	C1171.066895,952.613586 1170.814209,967.597229 1171.054932,982.572815 
	C1171.362915,1001.725037 1153.172485,1008.445923 1139.370361,1003.045288 
	C1129.742798,999.278137 1128.464966,990.313232 1128.134521,981.700195 
	C1127.624146,968.402466 1127.999390,955.070801 1127.998901,941.753540 
	C1127.998779,939.984253 1127.998779,938.214966 1127.998779,936.283447 
	C1124.400635,936.283447 1121.490723,936.283447 1118.000488,936.283447 
	C1118.000488,951.492126 1117.930176,966.426086 1118.047852,981.358521 
	C1118.078979,985.288452 1118.423096,989.260071 1119.090210,993.132141 
	C1120.672852,1002.317261 1125.403564,1009.742432 1134.429077,1012.521790 
	C1147.148071,1016.438416 1159.835327,1016.666382 1170.712280,1006.646484 
	C1170.961792,1008.881165 1171.174927,1010.790527 1171.384644,1012.668823 
	C1175.023315,1012.668823 1178.269653,1012.668823 1181.999146,1012.668823 
	C1181.999146,1000.729736 1181.999146,989.114868 1181.999146,976.500000 
M1195.000366,974.500000 
	C1195.000366,987.238220 1195.000366,999.976440 1195.000366,1012.638550 
	C1199.093628,1012.638550 1202.338135,1012.638550 1206.002563,1012.638550 
	C1206.002563,1010.480591 1206.002686,1008.680359 1206.002563,1006.880127 
	C1206.001587,993.063293 1205.805542,979.241943 1206.131592,965.432800 
	C1206.217041,961.817078 1207.322876,957.926453 1209.001831,954.704956 
	C1213.536377,946.004272 1221.641479,944.630737 1230.587158,944.931763 
	C1240.013306,945.249084 1247.037598,950.484558 1247.872070,959.834167 
	C1248.812744,970.373535 1248.748047,981.007874 1248.971436,991.604126 
	C1249.117676,998.545532 1248.999023,1005.492493 1248.999023,1012.594238 
	C1252.604492,1012.594238 1255.628540,1012.594238 1258.972656,1012.594238 
	C1258.972656,994.566406 1259.696655,976.902466 1258.754028,959.327881 
	C1257.932129,944.003174 1245.921509,935.040039 1232.056030,934.903931 
	C1222.649780,934.811646 1213.702026,935.453979 1206.325317,942.734497 
	C1206.035522,940.116516 1205.824219,938.206787 1205.616699,936.331787 
	C1201.974609,936.331787 1198.728149,936.331787 1195.000366,936.331787 
	C1195.000366,948.938171 1195.000366,961.219055 1195.000366,974.500000 
M1318.909668,1013.045959 
	C1327.164795,1014.991516 1335.444092,1015.755737 1343.800537,1013.640320 
	C1355.532959,1010.670288 1362.922485,1002.699341 1368.199707,992.363098 
	C1368.779907,991.226746 1368.715942,989.761475 1368.954468,988.427429 
	C1362.559570,987.444031 1357.876709,987.410583 1354.242065,993.841980 
	C1349.476929,1002.273804 1340.589111,1005.303528 1331.357910,1004.811157 
	C1319.753906,1004.192139 1310.764526,998.611328 1305.769043,984.466858 
	C1300.992065,970.941284 1305.727783,956.429016 1317.086426,948.566895 
	C1329.432983,940.020935 1346.207520,942.682312 1356.006348,956.895142 
	C1356.837402,958.100403 1358.071655,959.671631 1359.288818,959.839783 
	C1362.351074,960.262695 1365.510620,959.979675 1369.046265,959.979675 
	C1368.688599,958.489441 1368.641235,957.491089 1368.225708,956.681458 
	C1362.394165,945.314148 1354.162109,937.414307 1340.914429,934.738831 
	C1311.324463,928.762878 1286.157104,955.894104 1294.640381,986.288879 
	C1298.170898,998.938721 1306.963257,1006.933777 1318.909668,1013.045959 
M474.469147,968.083984 
	C474.856415,965.327576 474.920807,962.477722 475.687408,959.831177 
	C478.845306,948.929199 485.420807,944.649597 499.323334,945.077332 
	C510.344696,945.416382 513.715576,949.231567 516.654236,958.612488 
	C517.761719,962.147888 517.898987,966.080383 517.944031,969.838318 
	C518.093811,982.333008 518.000854,994.830627 518.000916,1007.327087 
	C518.000916,1009.088928 518.000916,1010.850769 518.000916,1012.666260 
	C522.000671,1012.666260 525.243652,1012.666260 528.473755,1012.666260 
	C528.688293,1011.890320 528.936462,1011.422852 528.928406,1010.959900 
	C528.627502,993.686646 528.667053,976.396667 527.854553,959.146912 
	C527.307983,947.542908 519.097107,938.264526 507.644379,935.958496 
	C495.734161,933.560425 483.993439,933.691833 474.298340,943.861023 
	C474.050140,940.862915 473.865875,938.637085 473.670868,936.281738 
	C470.417755,936.281738 467.500488,936.281738 464.395630,936.281738 
	C464.395630,961.927979 464.395630,987.291748 464.395630,1012.657959 
	C467.709381,1012.657959 470.624420,1012.657959 474.123291,1012.657959 
	C474.123291,997.862427 474.123291,983.403259 474.469147,968.083984 
M1380.000488,828.500000 
	C1380.000488,840.568237 1380.000488,852.636536 1380.000488,864.634033 
	C1385.093018,864.634033 1389.334717,864.634033 1393.576416,864.634033 
	C1393.576416,817.282043 1393.576416,770.296387 1393.576416,723.366394 
	C1388.906738,723.366394 1384.665283,723.366394 1380.000488,723.366394 
	C1380.000488,758.319885 1380.000488,792.909912 1380.000488,828.500000 
M1632.178345,949.645325 
	C1637.693359,944.499268 1644.520142,944.799500 1651.339844,944.992920 
	C1659.890137,945.235352 1667.601196,952.363220 1667.947998,960.911499 
	C1668.472168,973.833984 1668.693115,986.769287 1668.985229,999.700439 
	C1669.081787,1003.973999 1669.000488,1008.251648 1669.000488,1012.552124 
	C1672.685669,1012.552124 1675.709717,1012.552124 1678.004761,1012.552124 
	C1678.004761,993.854553 1678.660889,975.577637 1677.778687,957.375183 
	C1677.170654,944.827087 1666.067017,935.394836 1653.363159,934.956482 
	C1643.311523,934.609680 1633.542236,934.923035 1625.316772,943.068481 
	C1625.058838,940.236023 1624.886475,938.344177 1624.711914,936.426392 
	C1621.379395,936.426392 1618.342773,936.426392 1615.337891,936.426392 
	C1615.337891,962.081238 1615.337891,987.309021 1615.337891,1012.721313 
	C1618.589478,1012.721313 1621.500122,1012.721313 1624.999390,1012.721313 
	C1624.999390,1010.682007 1624.999390,1008.893921 1624.999390,1007.105835 
	C1624.999512,994.452576 1625.214722,981.794250 1624.917358,969.148010 
	C1624.744263,961.784607 1626.831665,955.578857 1632.178345,949.645325 
M1082.999390,761.633850 
	C1082.999390,759.862061 1082.999390,758.090271 1082.999390,754.764526 
	C1077.619019,756.571106 1073.078491,757.482544 1069.172852,759.577515 
	C1065.170044,761.724548 1061.788574,765.029846 1057.684082,768.173645 
	C1057.684082,764.738831 1057.684082,761.502808 1057.684082,758.380371 
	C1053.209106,758.380371 1049.300537,758.380371 1045.312866,758.380371 
	C1045.312866,793.995850 1045.312866,829.230774 1045.312866,864.563965 
	C1049.997192,864.563965 1054.355713,864.563965 1058.999634,864.563965 
	C1058.999634,843.316467 1058.832764,822.500732 1059.111328,801.690979 
	C1059.185303,796.153931 1059.821777,790.357849 1061.612793,785.168274 
	C1064.905518,775.627991 1073.029907,772.271912 1082.999634,771.687500 
	C1082.999634,768.496643 1082.999634,765.536499 1082.999390,761.633850 
M1313.776001,864.984375 
	C1317.707642,864.984375 1321.639160,864.984375 1325.575928,864.984375 
	C1325.575928,828.960876 1325.575928,793.634521 1325.575928,758.368408 
	C1320.572998,758.368408 1316.000000,758.368408 1311.452759,758.368408 
	C1311.265869,759.195129 1311.065674,759.668152 1311.065308,760.141296 
	C1311.036987,793.925171 1311.006348,827.709045 1311.087646,861.492676 
	C1311.090454,862.642273 1312.229370,863.789124 1313.776001,864.984375 
M1485.999146,970.500000 
	C1485.999146,962.418945 1485.999146,954.337891 1485.999146,945.769470 
	C1491.120483,945.769470 1495.374390,945.769470 1499.681641,945.769470 
	C1499.681641,942.334229 1499.681641,939.420044 1499.681641,935.817383 
	C1495.004150,935.817383 1490.630737,935.817383 1485.763428,935.817383 
	C1485.763428,927.536804 1485.763428,919.950317 1485.763428,912.323914 
	C1482.327026,912.323914 1479.413208,912.323914 1475.812256,912.323914 
	C1475.812256,920.337158 1475.812256,928.050842 1475.812256,936.245300 
	C1470.529297,936.245300 1465.942871,936.245300 1461.329956,936.245300 
	C1461.329956,939.681519 1461.329956,942.595764 1461.329956,946.199341 
	C1466.349976,946.199341 1471.057739,946.199341 1476.246582,946.199341 
	C1476.246582,968.807983 1476.246582,990.719177 1476.246582,1012.676514 
	C1479.673584,1012.676514 1482.587646,1012.676514 1485.999146,1012.676514 
	C1485.999146,998.739075 1485.999146,985.119507 1485.999146,970.500000 
M1283.993896,989.500000 
	C1283.993896,971.781494 1283.993896,954.062988 1283.993896,936.334351 
	C1279.961060,936.334351 1276.720215,936.334351 1273.394165,936.334351 
	C1273.394165,961.995178 1273.394165,987.320190 1273.394165,1012.666321 
	C1277.036499,1012.666321 1280.277344,1012.666321 1283.993896,1012.666321 
	C1283.993896,1005.062073 1283.993896,997.781067 1283.993896,989.500000 
M1517.000000,989.500000 
	C1517.000000,971.780518 1517.000000,954.061035 1517.000000,936.333557 
	C1512.960327,936.333557 1509.718628,936.333557 1506.392822,936.333557 
	C1506.392822,961.995605 1506.392822,987.322632 1506.392822,1012.666870 
	C1510.034058,1012.666870 1513.277222,1012.666870 1517.000000,1012.666870 
	C1517.000000,1005.062500 1517.000000,997.781250 1517.000000,989.500000 
M1311.005371,741.312500 
	C1311.119141,742.743469 1311.232910,744.174438 1311.354980,745.709229 
	C1316.300659,745.709229 1320.861084,745.709229 1325.626221,745.709229 
	C1325.626221,738.080322 1325.626221,730.745178 1325.626221,723.294250 
	C1320.688721,723.294250 1316.127441,723.294250 1311.004639,723.294250 
	C1311.004639,729.165405 1311.004639,734.756897 1311.005371,741.312500 
M1283.121216,912.269226 
	C1279.886719,912.269226 1276.652344,912.269226 1273.450195,912.269226 
	C1273.450195,917.745056 1273.450195,922.752563 1273.450195,927.621582 
	C1277.134155,927.621582 1280.364624,927.621582 1283.754150,927.621582 
	C1283.754150,922.481812 1283.754150,917.715942 1283.121216,912.269226 
M1506.058350,913.845398 
	C1506.058350,918.419495 1506.058350,922.993591 1506.058350,927.544006 
	C1510.058228,927.544006 1513.403931,927.544006 1516.636475,927.544006 
	C1516.636475,922.192017 1516.636475,917.301880 1516.636475,911.643860 
	C1512.878662,912.109131 1509.558350,912.520264 1506.058350,913.845398 
z"/>
<path fill="#A8A7A7" opacity="1.000000" stroke="none" 
	d="
M772.985535,559.833130 
	C761.606201,560.392578 750.226807,560.952087 738.270935,561.539978 
	C738.270935,542.628601 738.270935,524.571594 738.270935,506.070801 
	C703.331909,506.070801 668.930786,506.070801 633.773804,506.070801 
	C634.783447,488.822601 635.828003,472.272644 648.974976,459.519867 
	C653.391907,455.235382 658.678528,453.007812 664.846558,453.004272 
	C687.338318,452.991364 709.830017,452.999512 732.321777,452.999725 
	C734.109924,452.999756 735.898132,452.999786 737.915771,452.999786 
	C737.915771,437.252472 737.915771,421.982147 737.915771,406.263672 
	C703.547302,406.263672 669.143188,406.263672 634.209900,406.263672 
	C633.364075,395.424744 635.476318,385.513367 638.653381,375.688751 
	C641.131226,368.026306 644.812317,360.975403 651.835693,356.975586 
	C656.409790,354.370667 662.054199,352.479645 667.266113,352.362854 
	C689.413513,351.866516 711.578491,352.152130 733.737000,352.152161 
	C735.034851,352.152161 736.332703,352.152161 737.880066,352.152161 
	C737.880066,333.625763 737.880066,315.547241 737.880066,296.311340 
	C748.997253,297.156860 759.800842,297.667938 770.520569,298.905182 
	C777.428711,299.702484 784.506348,300.764191 790.988892,303.129883 
	C802.038147,307.162201 812.859985,311.941437 823.446167,317.088104 
	C837.020264,323.687378 847.664490,334.251953 857.552673,345.301453 
	C867.229675,356.115082 874.757141,368.539703 879.917664,382.205322 
	C881.615051,386.700104 882.654602,391.443298 883.986328,396.849548 
	C882.458618,400.367584 881.162598,403.263580 879.385498,405.825897 
	C864.779297,426.886047 850.091248,447.889404 835.413147,468.899567 
	C821.112549,489.369354 806.713623,509.770996 792.519348,530.314087 
	C785.813477,540.019287 779.484985,549.985291 772.985535,559.833130 
z"/>
<path fill="#EF6B4D" opacity="1.000000" stroke="none" 
	d="
M1359.000000,593.999634 
	C1332.003052,594.001892 1305.463257,594.933533 1279.022339,593.717834 
	C1257.146362,592.712097 1235.886353,587.427124 1218.862671,572.214417 
	C1208.327759,562.800293 1202.013916,550.459595 1199.098877,536.736877 
	C1194.235596,513.842468 1196.265869,490.546082 1196.052979,467.400116 
	C1195.910767,451.945587 1196.603394,436.499146 1202.016479,421.774689 
	C1207.951050,405.631348 1218.337158,393.195190 1233.651855,385.061859 
	C1246.240234,378.376465 1259.694580,374.561401 1273.882690,374.075897 
	C1293.301392,373.411469 1312.764404,372.589203 1332.162964,373.223358 
	C1349.509033,373.790436 1366.460327,377.775024 1381.393066,387.216370 
	C1397.571045,397.445099 1407.864258,411.948364 1412.117676,430.943756 
	C1416.602417,450.971924 1414.787842,471.179230 1414.797729,491.309937 
	C1414.802368,500.666870 1410.166992,505.916168 1398.452515,505.949188 
	C1353.957886,506.074646 1309.462769,505.999878 1264.967773,506.000000 
	C1263.167114,506.000000 1261.366577,506.000000 1259.287842,506.000000 
	C1258.042236,517.136414 1260.098145,527.152527 1268.347290,534.457642 
	C1272.109619,537.789368 1277.690063,539.567871 1282.750488,540.793030 
	C1287.796509,542.014648 1293.222656,541.936890 1298.483765,541.954529 
	C1327.146973,542.050598 1355.810547,541.982483 1384.473999,542.008301 
	C1397.191406,542.019714 1400.887207,547.181091 1402.818726,557.032043 
	C1405.045410,568.389526 1406.318481,579.934326 1407.978516,591.401733 
	C1408.071777,592.046143 1407.916870,592.726440 1407.841431,593.999634 
	C1391.725952,593.999634 1375.612915,593.999634 1359.000000,593.999634 
M1341.985840,430.405396 
	C1335.661865,428.603607 1329.419434,425.724152 1322.995850,425.238007 
	C1311.731567,424.385437 1300.339233,424.624451 1289.033081,425.131195 
	C1281.426025,425.472107 1273.840454,426.895691 1267.902100,432.572357 
	C1259.172974,440.916718 1258.372314,451.446411 1259.212891,462.731018 
	C1290.861206,462.731018 1322.249023,462.731018 1354.454956,462.731018 
	C1353.609497,456.420380 1352.890625,450.453491 1351.991577,444.513855 
	C1351.077393,438.474792 1347.781616,433.989807 1341.985840,430.405396 
z"/>
<path fill="#262223" opacity="1.000000" stroke="none" 
	d="
M1175.945435,411.132080 
	C1179.034790,411.132080 1182.124146,411.132080 1185.833496,411.132080 
	C1182.300293,417.886108 1179.255005,423.891327 1176.046509,429.808167 
	C1163.681152,452.612030 1151.261108,475.386200 1138.866211,498.174133 
	C1122.349487,528.540161 1105.763428,558.868896 1089.361084,589.296570 
	C1083.066162,600.974426 1077.389038,612.985657 1071.080322,624.655701 
	C1063.314941,639.020264 1054.678101,652.793579 1042.500977,664.013611 
	C1027.038940,678.260376 1008.885681,685.630920 987.450928,685.549438 
	C987.686646,683.645630 988.100830,681.971924 989.020325,680.649658 
	C1016.389832,641.293945 1043.807739,601.971802 1071.221436,562.646790 
	C1101.776367,518.815369 1132.359619,475.003723 1162.864136,431.137238 
	C1167.411133,424.598572 1171.594116,417.806793 1175.945435,411.132080 
z"/>
<path fill="#312D2E" opacity="1.000000" stroke="none" 
	d="
M1175.482422,411.103607 
	C1171.594116,417.806793 1167.411133,424.598572 1162.864136,431.137238 
	C1132.359619,475.003723 1101.776367,518.815369 1071.221436,562.646790 
	C1043.807739,601.971802 1016.389832,641.293945 989.020325,680.649658 
	C988.100830,681.971924 987.686646,683.645630 986.997559,685.510437 
	C978.271912,685.889648 969.585693,685.913940 960.468994,685.533447 
	C960.768433,683.476013 961.256226,681.655579 962.266418,680.197021 
	C970.776489,667.909485 979.452942,655.736633 987.907776,643.411560 
	C989.927979,640.466614 991.305298,637.080627 992.978271,633.897461 
	C1005.242859,630.417786 1012.385315,622.452698 1015.011414,609.905945 
	C1016.316040,603.672607 1018.820190,597.690369 1021.287048,591.195435 
	C1022.975281,589.686340 1024.396362,588.742737 1025.305664,587.441467 
	C1041.394531,564.415222 1057.411987,541.338989 1073.463623,518.286621 
	C1097.303589,484.049286 1121.166626,449.828064 1144.974121,415.568268 
	C1145.880127,414.264618 1146.309570,412.629761 1146.961060,411.149231 
	C1156.313843,411.124542 1165.666626,411.099823 1175.482422,411.103607 
z"/>
<path fill="#68696B" opacity="1.000000" stroke="none" 
	d="
M578.001099,815.000000 
	C578.001099,795.880920 578.001099,777.261902 578.001099,758.324097 
	C582.753052,758.324097 586.997559,758.324097 591.827393,758.324097 
	C591.827393,762.935364 591.827393,767.488831 591.827393,773.764648 
	C605.017761,758.546936 620.870728,753.119324 638.789062,755.265076 
	C653.217102,756.992920 666.051941,763.235107 675.338806,774.939087 
	C693.543884,797.882568 692.816223,834.449585 667.574219,855.940979 
	C652.505432,868.770813 617.948364,877.261108 592.220642,850.120972 
	C592.220642,866.594971 592.220642,882.425720 592.220642,898.622620 
	C587.355408,898.622620 583.110962,898.622620 578.001099,898.622620 
	C578.001099,870.973755 578.001099,843.236877 578.001099,815.000000 
M618.826172,851.897217 
	C623.444031,852.923950 628.124390,855.035034 632.667908,854.772949 
	C646.017151,854.002869 657.318848,848.143188 664.834656,837.016418 
	C672.701782,825.369629 674.965454,812.723389 670.467407,798.618958 
	C666.289001,785.516357 658.357971,775.861694 646.101135,771.375671 
	C617.631042,760.955627 594.255188,782.435242 592.241699,807.147095 
	C590.602905,827.259521 599.630737,842.505615 618.826172,851.897217 
z"/>
<path fill="#68696B" opacity="1.000000" stroke="none" 
	d="
M1758.000000,811.938843 
	C1757.926025,794.026794 1763.926880,778.997070 1777.089233,767.540710 
	C1785.530273,760.193726 1795.825439,756.369812 1807.125977,754.879578 
	C1819.180176,753.289917 1830.465454,755.081726 1840.882324,761.025146 
	C1846.079712,763.990540 1851.269653,767.568848 1855.229614,771.977722 
	C1863.311890,780.976013 1867.234497,792.140625 1868.952393,804.042542 
	C1869.484619,807.729675 1869.719360,811.459717 1870.155151,815.818298 
	C1837.546875,815.818298 1805.647461,815.818298 1773.720703,815.818298 
	C1774.819824,835.777100 1786.072632,849.379272 1805.450806,853.505066 
	C1821.750732,856.975403 1838.304199,850.605957 1847.278442,835.065857 
	C1849.157227,831.812683 1851.015991,830.639221 1854.571777,830.934509 
	C1858.188232,831.234802 1861.848877,831.000793 1865.610596,831.000793 
	C1858.250244,852.783752 1836.954712,871.188477 1807.246338,867.891113 
	C1780.326660,864.903320 1758.328491,841.199280 1758.000000,811.938843 
M1851.622925,795.193787 
	C1847.503662,788.099121 1844.366821,780.476440 1837.148926,775.430786 
	C1823.365723,765.795837 1802.630127,765.924561 1788.980957,775.799988 
	C1780.156250,782.184692 1775.369751,791.505493 1774.252075,802.616150 
	C1800.628540,802.616150 1826.671265,802.616150 1852.931519,802.616150 
	C1852.816162,801.249451 1852.793213,800.269531 1852.637207,799.311279 
	C1852.453003,798.181580 1852.153564,797.070618 1851.622925,795.193787 
z"/>
<path fill="#68696B" opacity="1.000000" stroke="none" 
	d="
M1271.769775,840.730286 
	C1272.927490,839.503784 1274.319580,838.677368 1274.661987,837.536072 
	C1276.674683,830.826172 1281.704346,830.414673 1287.403931,830.967102 
	C1289.542236,831.174316 1291.717407,831.000610 1293.937988,831.000610 
	C1287.587646,853.208191 1265.196045,871.502075 1235.712524,867.787476 
	C1204.001221,863.792114 1182.804077,835.979248 1187.258423,802.569153 
	C1191.875244,767.940613 1219.410156,752.806396 1245.670532,754.296204 
	C1283.668945,756.452026 1299.729614,787.982056 1297.530029,815.935913 
	C1265.876099,815.935913 1234.159912,815.935913 1201.829224,815.935913 
	C1202.855347,826.237000 1205.990234,834.825684 1212.691528,841.844177 
	C1222.528931,852.147278 1235.011719,855.752441 1248.664429,853.777832 
	C1257.541870,852.493958 1265.611328,848.303650 1271.769775,840.730286 
M1230.499512,769.827820 
	C1213.452026,774.173462 1206.076538,786.781433 1202.182495,802.653320 
	C1228.886963,802.653320 1255.287109,802.653320 1282.121338,802.653320 
	C1278.403809,788.800720 1272.261353,777.161255 1258.787720,771.530212 
	C1250.030518,767.870361 1240.605225,767.470032 1230.499512,769.827820 
z"/>
<path fill="#68696B" opacity="1.000000" stroke="none" 
	d="
M474.916748,809.296326 
	C474.965332,811.567383 474.965332,813.387268 474.965332,815.732178 
	C442.816223,815.732178 410.925720,815.732178 379.066254,815.732178 
	C378.011780,835.397888 396.893066,854.335327 417.598969,854.150818 
	C433.825073,854.006165 445.477905,847.134827 453.813171,833.630554 
	C454.539032,832.454590 456.178619,831.226074 457.474731,831.131592 
	C461.767517,830.818359 466.097382,831.013367 472.000214,831.013367 
	C468.687622,836.728882 466.363190,841.907349 463.005157,846.294861 
	C455.581757,855.993469 446.266357,863.485413 434.102203,866.302795 
	C410.533875,871.761597 389.683533,865.509644 374.952820,845.679810 
	C360.144684,825.745667 359.954865,803.998047 370.443481,782.695923 
	C378.908722,765.503296 394.220825,756.744690 413.600555,754.880615 
	C427.813934,753.513428 440.708527,756.236572 452.192535,764.647949 
	C465.457397,774.363525 472.144501,787.884583 474.012878,804.007568 
	C474.201050,805.631348 474.578522,807.233215 474.916748,809.296326 
M394.395844,775.888794 
	C385.557861,782.537598 380.997375,791.621094 378.929077,802.580261 
	C405.466003,802.580261 431.597473,802.580261 457.779388,802.580261 
	C456.247864,790.290222 449.113281,777.486023 437.216705,772.323242 
	C422.881927,766.102356 408.469482,766.472473 394.395844,775.888794 
z"/>
<path fill="#68696B" opacity="1.000000" stroke="none" 
	d="
M1517.999512,830.000000 
	C1517.999512,841.786011 1517.999512,853.072021 1517.999512,864.674927 
	C1513.251221,864.674927 1509.008301,864.674927 1504.180542,864.674927 
	C1504.180542,859.735779 1504.180542,854.850037 1504.180542,848.362488 
	C1490.960815,864.211853 1474.934326,869.504639 1456.328613,867.620789 
	C1439.905762,865.957886 1426.515991,858.237305 1417.461426,844.708252 
	C1401.341187,820.621948 1406.163940,788.248779 1423.483765,771.394226 
	C1447.844604,747.688049 1485.345215,750.593811 1503.730225,773.545288 
	C1503.730225,768.052673 1503.730225,763.389709 1503.730225,758.368103 
	C1508.657593,758.368103 1512.900757,758.368103 1517.999512,758.368103 
	C1517.999512,782.033813 1517.999512,805.766907 1517.999512,830.000000 
M1462.616211,854.960571 
	C1466.896484,853.966309 1471.289917,853.309570 1475.437378,851.919312 
	C1493.217407,845.959656 1504.175537,827.217834 1503.814941,809.981567 
	C1503.498413,794.845520 1495.831055,782.481323 1483.439331,774.503479 
	C1466.860107,763.829651 1446.015259,767.558594 1433.376953,782.694153 
	C1422.096191,796.203857 1419.357666,812.180115 1426.113525,828.970337 
	C1430.142212,838.982605 1436.782715,846.763428 1447.240845,850.519348 
	C1451.985718,852.223450 1456.910156,853.427490 1462.616211,854.960571 
z"/>
<path fill="#68696B" opacity="1.000000" stroke="none" 
	d="
M918.940674,808.329163 
	C922.373779,820.946350 921.591187,833.352783 916.512512,844.470398 
	C908.980103,860.959351 892.906067,870.547546 872.732971,867.464905 
	C860.352173,865.572998 851.390381,858.834595 845.450623,848.564270 
	C841.365601,841.500854 839.622192,833.241211 840.133606,824.399170 
	C844.674194,824.399170 849.054443,824.399170 852.774170,824.399170 
	C854.713013,830.067566 855.831299,835.785156 858.502014,840.650452 
	C864.621338,851.797791 875.625183,853.290344 887.266052,851.370728 
	C898.354431,849.542297 904.873291,837.800232 905.979065,828.605408 
	C907.555420,815.497986 900.428223,807.194336 889.893860,801.619446 
	C881.971252,797.426758 873.333740,794.594055 865.049316,791.073975 
	C853.038086,785.970337 845.398132,777.731323 843.848755,764.047668 
	C842.163818,749.166809 846.810791,737.052673 858.081543,727.675659 
	C861.472900,724.854065 866.119873,723.130859 870.475464,721.960754 
	C881.080750,719.111572 891.699707,719.528259 901.354065,725.244812 
	C910.940979,730.921265 914.993591,740.369568 916.974060,750.866882 
	C917.426697,753.265686 917.607483,755.715881 918.016846,758.963562 
	C913.838501,758.963562 909.883179,759.304199 906.053284,758.760559 
	C904.871399,758.592773 903.414246,756.122192 903.135315,754.522583 
	C901.264465,743.793579 896.085938,736.266479 884.688660,734.344482 
	C873.791870,732.506897 860.709900,740.718201 859.005859,752.176514 
	C856.543152,768.736023 863.817322,774.890015 876.883728,779.908813 
	C885.618774,783.263977 894.486328,786.324707 903.028015,790.117615 
	C910.823303,793.579041 916.201477,799.669128 918.940674,808.329163 
z"/>
<path fill="#68696B" opacity="1.000000" stroke="none" 
	d="
M513.158386,736.961060 
	C502.032318,745.207947 498.523560,754.461853 501.909973,765.113464 
	C504.045959,771.832092 508.878845,775.676331 515.100586,778.065247 
	C523.053711,781.119019 531.142273,783.825378 539.059204,786.967041 
	C554.732178,793.186401 563.856201,803.435303 562.854126,821.091553 
	C562.421509,828.713379 561.361938,836.577515 558.885193,843.743225 
	C554.720825,855.791260 545.619507,863.674194 533.240601,866.700928 
	C518.762268,870.240967 505.210541,867.917114 494.422150,856.792175 
	C487.511139,849.665649 483.173737,841.101746 482.950775,830.831726 
	C482.906158,828.777466 482.316101,826.734924 481.869171,824.031372 
	C486.190979,824.031372 490.096313,823.497437 493.707153,824.295654 
	C495.139893,824.612366 496.409027,827.765137 496.912781,829.831421 
	C499.315430,839.686584 503.733521,848.840515 514.649536,851.194214 
	C531.341187,854.793091 544.732422,848.541382 548.182312,829.496948 
	C550.884277,814.580383 538.749817,803.530090 527.984680,799.085327 
	C519.789062,795.701416 511.335907,792.861633 503.384033,788.986267 
	C492.131622,783.502380 486.493195,774.042358 485.966309,761.466248 
	C485.655670,754.051270 486.785950,747.049316 490.228271,740.391663 
	C495.262878,730.654541 502.574280,724.008789 513.585815,721.685974 
	C524.207336,719.445435 534.593201,719.523193 543.945923,725.519348 
	C555.720276,733.067993 559.609497,744.802246 560.157227,758.972961 
	C556.178955,758.972961 552.565857,759.223572 549.025818,758.825439 
	C547.914551,758.700500 546.665771,756.993103 546.053467,755.731628 
	C543.655945,750.792358 542.144775,745.290649 539.085083,740.835144 
	C534.132874,733.623779 522.729553,731.921021 513.158386,736.961060 
z"/>
<path fill="#68696B" opacity="1.000000" stroke="none" 
	d="
M184.000824,796.000000 
	C184.000824,771.549194 184.000824,747.598389 184.000824,723.326172 
	C208.750122,723.326172 232.988480,723.326172 257.613586,723.326172 
	C257.613586,727.627441 257.613586,731.872009 257.613586,736.819702 
	C238.037445,736.819702 218.335144,736.819702 198.321960,736.819702 
	C198.321960,753.753967 198.321960,769.994568 198.321960,786.759277 
	C217.963684,786.759277 237.541840,786.759277 257.557312,786.759277 
	C257.557312,791.630188 257.557312,795.989319 257.557312,800.882751 
	C237.909607,800.882751 218.330490,800.882751 198.378647,800.882751 
	C198.378647,817.304749 198.378647,833.213440 198.378647,849.826904 
	C217.964706,849.826904 237.664703,849.826904 257.676392,849.826904 
	C257.676392,855.099426 257.676392,859.675720 257.676392,864.627319 
	C233.348404,864.627319 209.108963,864.627319 184.000824,864.627319 
	C184.000824,841.976135 184.000824,819.238037 184.000824,796.000000 
z"/>
<path fill="#9C9B9B" opacity="1.000000" stroke="none" 
	d="
M773.391113,559.898132 
	C779.484985,549.985291 785.813477,540.019287 792.519348,530.314087 
	C806.713623,509.770996 821.112549,489.369354 835.413147,468.899567 
	C850.091248,447.889404 864.779297,426.886047 879.385498,405.825897 
	C881.162598,403.263580 882.458618,400.367584 884.012817,397.256104 
	C892.717651,396.937347 901.387329,396.988678 910.515259,397.473267 
	C910.044739,399.989380 909.417969,402.281647 908.141113,404.123077 
	C893.934387,424.610229 879.624756,445.025970 865.347412,465.464111 
	C848.404968,489.717316 831.423462,513.943481 814.573853,538.261047 
	C812.055481,541.895569 810.165161,545.965271 807.984314,549.833618 
	C796.588440,553.210144 785.192627,556.586670 773.391113,559.898132 
z"/>
<path fill="#3C3839" opacity="1.000000" stroke="none" 
	d="
M1146.497070,411.113861 
	C1146.309570,412.629761 1145.880127,414.264618 1144.974121,415.568268 
	C1121.166626,449.828064 1097.303589,484.049286 1073.463623,518.286621 
	C1057.411987,541.338989 1041.394531,564.415222 1025.305664,587.441467 
	C1024.396362,588.742737 1022.975281,589.686340 1021.471130,590.874146 
	C1021.149902,589.812805 1021.149902,588.673645 1021.149902,587.275818 
	C1013.872925,586.992920 1007.611511,584.766418 1003.574219,578.199707 
	C1004.985046,576.684814 1006.396790,575.731628 1007.313538,574.429932 
	C1015.458740,562.863037 1023.406006,551.155334 1031.652466,539.661987 
	C1035.080078,534.884888 1039.091187,530.526489 1042.836914,525.977661 
	C1044.510010,528.440002 1046.182983,530.902405 1048.585571,534.438416 
	C1054.595093,523.648621 1059.787720,514.263916 1065.038208,504.911682 
	C1076.388428,484.694061 1087.773804,464.496155 1099.133057,444.283569 
	C1102.923096,437.539551 1107.401733,431.067780 1110.275391,423.950592 
	C1114.418579,413.688660 1122.369995,411.186066 1132.051758,411.022064 
	C1136.710571,410.943176 1141.372437,411.053741 1146.497070,411.113861 
z"/>
<path fill="#68696B" opacity="1.000000" stroke="none" 
	d="
M1025.998657,800.000000 
	C1025.998657,821.780029 1025.998657,843.060059 1025.998657,864.667786 
	C1020.932007,864.667786 1016.356506,864.667786 1011.211792,864.667786 
	C1011.211792,861.746338 1011.211792,858.861267 1011.211792,855.507690 
	C1006.776306,858.606079 1003.269531,862.087769 999.045349,863.827148 
	C981.196472,871.176636 963.612793,870.020630 948.184387,858.241089 
	C941.284851,852.973267 938.279907,843.922729 937.105957,835.154175 
	C933.744324,810.046814 935.168884,784.775696 935.118835,759.559021 
	C935.118286,759.260986 935.339905,758.962524 935.588074,758.334717 
	C940.032104,758.334717 944.601379,758.334717 949.687744,758.334717 
	C949.772156,760.178101 949.920349,761.947083 949.923828,763.716309 
	C949.961975,783.203247 950.092102,802.691101 949.943054,822.176758 
	C949.882996,830.026123 952.342896,837.040222 955.898560,843.781616 
	C959.021362,849.702393 964.929810,852.618408 970.760010,853.576782 
	C986.112915,856.100525 1004.186768,852.153687 1009.039307,832.648254 
	C1009.937988,829.035889 1010.877625,825.309631 1010.913574,821.627319 
	C1011.100464,802.475037 1011.000977,783.319885 1011.001221,764.165771 
	C1011.001221,762.361084 1011.001221,760.556396 1011.001221,758.377563 
	C1015.977539,758.377563 1020.553589,758.377563 1025.998657,758.377563 
	C1025.998657,772.023010 1025.998657,785.761475 1025.998657,800.000000 
z"/>
<path fill="#68696B" opacity="1.000000" stroke="none" 
	d="
M1672.802002,847.273071 
	C1687.438965,856.492065 1702.172363,856.787415 1716.410400,847.916748 
	C1721.387207,844.816101 1725.255737,839.599365 1728.863037,834.775085 
	C1730.756836,832.242310 1732.177002,830.689758 1735.459717,830.938049 
	C1739.092041,831.212769 1742.760986,831.000854 1746.479614,831.000854 
	C1742.632935,848.374634 1722.676636,869.657104 1692.359619,868.178101 
	C1666.699829,866.926147 1644.883789,846.084534 1641.011108,822.774109 
	C1635.113403,787.274414 1657.156860,762.206787 1682.138794,756.098267 
	C1710.506104,749.161987 1736.535034,763.048218 1746.952515,790.948608 
	C1741.981079,790.948608 1737.246704,791.204468 1732.571899,790.789307 
	C1731.208008,790.668213 1729.683594,788.843140 1728.796875,787.442078 
	C1723.903320,779.709961 1717.557983,773.952209 1708.736206,770.904602 
	C1687.314819,763.504517 1667.577148,773.215332 1658.809937,793.057495 
	C1650.916382,810.922302 1656.239746,832.317139 1669.311890,844.754639 
	C1670.253540,845.650574 1671.452881,846.275574 1672.802002,847.273071 
z"/>
<path fill="#68696B" opacity="1.000000" stroke="none" 
	d="
M342.072327,815.111450 
	C333.357178,836.769714 324.705292,858.042114 316.029633,879.304688 
	C313.747406,884.898010 311.522461,890.522278 308.973328,895.993469 
	C308.373474,897.280884 306.632050,898.733704 305.302246,898.853943 
	C301.194580,899.225098 297.032074,898.989380 292.426422,898.989380 
	C296.483185,888.860352 300.135529,879.068665 304.359619,869.530151 
	C306.012451,865.797974 306.180542,863.171631 304.379242,859.173706 
	C299.595856,848.557312 295.953644,837.429626 291.781769,826.534302 
	C284.053680,806.351685 276.264282,786.192505 268.521667,766.015381 
	C267.589111,763.585205 266.788208,761.104370 265.709625,758.029358 
	C270.594604,758.029358 275.323853,757.872253 280.027283,758.150879 
	C281.073273,758.212830 282.516022,759.619080 282.949524,760.729126 
	C287.067017,771.272583 290.963837,781.901855 295.006226,792.475037 
	C301.378479,809.142212 307.814178,825.785156 314.515533,843.198425 
	C326.010895,814.459045 337.232056,786.405212 348.516479,758.193237 
	C353.833069,758.193237 359.127991,758.193237 365.404846,758.193237 
	C357.515503,777.351746 349.821106,796.036804 342.072327,815.111450 
z"/>
<path fill="#68696B" opacity="1.000000" stroke="none" 
	d="
M1580.250610,755.000793 
	C1591.614990,754.416199 1601.817871,757.209900 1610.755249,763.111572 
	C1619.040527,768.582642 1624.453857,776.976257 1624.818970,786.937500 
	C1625.701782,811.025024 1625.666626,835.146362 1625.996460,859.254089 
	C1626.018921,860.901489 1625.999268,862.549377 1625.999268,864.595093 
	C1621.413696,864.595093 1617.171753,864.595093 1612.001587,864.595093 
	C1612.001587,862.852478 1612.001465,860.949524 1612.001465,859.046631 
	C1612.001099,839.216064 1611.916016,819.384888 1612.039673,799.555115 
	C1612.093262,790.965149 1609.611206,783.263367 1604.082275,776.856018 
	C1601.937866,774.371033 1598.617676,772.459229 1595.459351,771.368958 
	C1583.492188,767.237732 1567.416626,768.702698 1558.115356,779.325378 
	C1553.025146,785.138916 1551.359253,792.194336 1551.116821,799.406006 
	C1550.446655,819.336792 1550.331055,839.286194 1550.003052,859.228394 
	C1549.975830,860.876221 1549.999268,862.524902 1549.999268,864.585632 
	C1545.640869,864.585632 1541.614136,864.585632 1537.290527,864.585632 
	C1537.290527,829.179565 1537.290527,793.938599 1537.290527,758.348999 
	C1541.367432,758.348999 1545.278687,758.348999 1549.759766,758.348999 
	C1549.759766,761.553955 1549.759766,764.785461 1549.759766,769.578003 
	C1558.517456,759.979065 1568.720215,756.509949 1580.250610,755.000793 
z"/>
<path fill="#919090" opacity="1.000000" stroke="none" 
	d="
M808.337158,549.801758 
	C810.165161,545.965271 812.055481,541.895569 814.573853,538.261047 
	C831.423462,513.943481 848.404968,489.717316 865.347412,465.464111 
	C879.624756,445.025970 893.934387,424.610229 908.141113,404.123077 
	C909.417969,402.281647 910.044739,399.989380 910.979248,397.535950 
	C921.867249,397.184113 932.749390,397.202820 943.595581,397.776123 
	C933.106934,413.288605 922.596069,428.206482 912.265198,443.248016 
	C910.735046,445.475830 910.055115,448.287537 908.981873,450.829132 
	C901.920593,450.456024 894.859375,450.082916 888.411438,449.742218 
	C885.291809,459.259583 882.492737,468.174438 879.447327,477.004303 
	C874.491028,491.374847 866.443665,504.038239 855.929321,514.796875 
	C847.357788,523.567383 837.938354,531.626282 828.201111,539.096436 
	C822.388794,543.555420 815.238708,546.270752 808.337158,549.801758 
z"/>
<path fill="#68696B" opacity="1.000000" stroke="none" 
	d="
M1000.028809,941.956787 
	C1013.189514,930.422607 1031.100220,932.210022 1046.838867,946.110962 
	C1051.920044,942.887451 1056.494385,938.885803 1061.820190,936.852844 
	C1070.843140,933.408630 1080.487061,933.579529 1089.388306,937.395508 
	C1098.063477,941.114502 1102.347168,949.226257 1102.735352,957.969604 
	C1103.536499,976.013977 1102.976685,994.118774 1102.976685,1012.601685 
	C1100.737305,1012.601685 1097.826050,1012.601685 1094.252686,1012.601685 
	C1094.174683,1011.033691 1094.015259,1009.288391 1094.012329,1007.542786 
	C1093.990967,994.546509 1094.110718,981.548706 1093.928711,968.554932 
	C1093.878662,964.977539 1093.206421,961.353638 1092.383545,957.853638 
	C1090.557373,950.088074 1084.881836,944.611389 1072.542480,944.763550 
	C1063.316284,944.877319 1054.364380,951.181580 1052.367798,960.464600 
	C1051.402222,964.954895 1051.119995,969.653625 1051.058105,974.265076 
	C1050.888550,986.905762 1050.999634,999.550110 1050.999634,1012.594604 
	C1047.625854,1012.594604 1044.599731,1012.594604 1040.999756,1012.594604 
	C1040.999756,998.646301 1041.070190,984.863342 1040.956787,971.081787 
	C1040.922974,966.977417 1040.984131,962.711365 1039.924072,958.812500 
	C1038.146729,952.275818 1034.597534,947.062988 1027.120850,945.521912 
	C1010.585754,942.113647 997.759827,950.281433 997.959717,967.848694 
	C998.124573,982.340759 997.938354,996.836731 997.892090,1011.330933 
	C997.891113,1011.638367 997.700623,1011.945129 997.474731,1012.624634 
	C994.357483,1012.624634 991.109070,1012.624634 987.427979,1012.624634 
	C987.427979,987.360291 987.427979,961.998535 987.427979,936.317444 
	C990.761047,936.317444 994.010681,936.317444 996.888306,936.317444 
	C997.882263,938.354553 998.781189,940.196777 1000.028809,941.956787 
z"/>
<path fill="#68696B" opacity="1.000000" stroke="none" 
	d="
M953.262451,935.186646 
	C966.160767,938.825867 972.227478,948.039001 972.813049,960.045166 
	C973.659424,977.399353 973.029663,994.825562 973.029663,1012.612793 
	C970.711975,1012.612793 967.798523,1012.612793 964.248657,1012.612793 
	C964.171387,1011.019043 964.015503,1009.267700 964.012756,1007.516052 
	C963.991821,994.025208 964.224731,980.529053 963.910461,967.045532 
	C963.739197,959.700317 961.981079,952.350220 955.488770,947.982239 
	C948.245605,943.108887 939.845703,943.441284 932.370911,947.106689 
	C925.011047,950.715881 921.234131,957.715088 921.072754,965.969666 
	C920.805847,979.621887 920.999878,993.283081 920.999695,1006.940491 
	C920.999634,1008.740356 920.999695,1010.540222 920.999695,1012.661682 
	C917.618469,1012.661682 914.704041,1012.661682 911.235962,1012.661682 
	C911.158020,1010.917542 911.013611,1009.153137 911.010925,1007.388489 
	C910.991333,994.397278 911.290161,981.397156 910.890259,968.418213 
	C910.653381,960.731934 909.982666,952.651001 902.380127,948.018738 
	C894.570923,943.260498 886.184143,943.588562 878.252136,947.473816 
	C871.114136,950.970093 867.968933,957.359009 867.988220,965.322937 
	C868.026062,980.923096 867.999390,996.523376 867.999390,1012.557861 
	C863.698242,1012.557861 860.673401,1012.557861 857.318848,1012.557861 
	C857.318848,987.259827 857.318848,962.025146 857.318848,936.395020 
	C860.403687,936.395020 863.440613,936.395020 866.736389,936.395020 
	C866.884460,938.657837 867.023193,940.777649 867.236511,944.037292 
	C874.540344,936.050049 883.369141,934.743103 893.064575,934.831421 
	C903.238098,934.924194 910.621460,939.583130 917.002686,946.505005 
	C920.800781,943.580139 924.231567,940.456299 928.109314,938.053833 
	C935.805481,933.285583 944.504761,935.364075 953.262451,935.186646 
z"/>
<path fill="#68696B" opacity="1.000000" stroke="none" 
	d="
M1139.335815,835.237793 
	C1146.040283,818.586670 1152.533325,802.256958 1159.020020,785.924805 
	C1162.043457,778.312561 1165.182983,770.742859 1168.015869,763.060181 
	C1169.384155,759.349854 1171.261719,757.348145 1175.569580,757.916260 
	C1178.813110,758.343994 1182.158203,758.000854 1185.886230,758.000854 
	C1182.494507,766.535217 1179.345825,774.595032 1176.093140,782.612732 
	C1169.754761,798.237061 1163.407471,813.858154 1156.968872,829.441345 
	C1152.385620,840.533875 1147.713989,851.591553 1142.876343,862.574280 
	C1142.381226,863.698120 1140.528564,864.778381 1139.215698,864.899231 
	C1129.327515,865.809998 1128.912720,865.431213 1125.015991,855.407593 
	C1113.131836,824.838806 1101.217651,794.281738 1089.354614,763.704651 
	C1088.720337,762.069580 1088.451294,760.292847 1087.866211,758.013123 
	C1092.336426,758.013123 1096.319580,757.801758 1100.256348,758.135681 
	C1101.518188,758.242676 1103.293701,759.539368 1103.760132,760.717163 
	C1113.963257,786.483765 1124.008545,812.312866 1134.116089,838.117432 
	C1134.582153,839.307312 1135.347168,840.380188 1136.382935,842.246521 
	C1137.478882,839.570068 1138.300293,837.564209 1139.335815,835.237793 
z"/>
<path fill="#68696B" opacity="1.000000" stroke="none" 
	d="
M547.697815,946.774841 
	C560.289124,933.057312 587.147644,927.540405 605.879517,946.779846 
	C605.879517,935.003479 605.879517,923.830688 605.879517,912.336060 
	C609.387634,912.336060 612.301086,912.336060 615.609192,912.336060 
	C615.609192,945.694031 615.609192,979.034851 615.609192,1012.688049 
	C612.567993,1012.688049 609.656311,1012.688049 606.176025,1012.688049 
	C606.176025,1009.400574 606.176025,1006.183472 606.176025,1003.235413 
	C600.427856,1006.517273 595.321960,1010.515869 589.526611,1012.555420 
	C563.130371,1021.845459 537.966614,1001.283203 537.921021,975.357666 
	C537.902283,964.699707 540.792786,955.303589 547.697815,946.774841 
M585.744629,945.336182 
	C581.660706,944.982239 577.428406,943.762939 573.520142,944.433228 
	C560.722900,946.628296 552.316956,954.544983 549.638672,967.089050 
	C546.615051,981.250610 551.092041,994.693726 565.195129,1001.887329 
	C582.936829,1010.936829 599.428162,999.524353 604.958557,982.682434 
	C609.514404,968.808228 600.996399,952.061340 585.744629,945.336182 
z"/>
<path fill="#68696B" opacity="1.000000" stroke="none" 
	d="
M1378.894409,964.047852 
	C1382.609253,948.539246 1392.552490,939.363342 1407.081543,935.604431 
	C1421.558472,931.859192 1434.729126,935.044128 1445.861328,947.326233 
	C1445.861328,943.023865 1445.861328,939.941345 1445.861328,936.430054 
	C1449.283447,936.430054 1452.310791,936.430054 1455.675537,936.430054 
	C1455.675537,961.751282 1455.675537,986.974487 1455.675537,1012.598999 
	C1452.713745,1012.598999 1449.804199,1012.598999 1446.334961,1012.598999 
	C1446.334961,1009.534119 1446.334961,1006.300842 1446.334961,1001.805725 
	C1429.878174,1017.307068 1411.866699,1019.348816 1394.348389,1008.190430 
	C1378.884766,998.340698 1375.516724,982.080200 1378.894409,964.047852 
M1406.174316,946.386780 
	C1391.701660,954.172852 1386.224731,966.432068 1389.237427,981.630554 
	C1392.277344,996.966858 1403.633545,1005.349670 1418.067261,1004.892883 
	C1436.859009,1004.298218 1450.294678,982.610779 1444.558105,965.890747 
	C1439.497070,951.139587 1426.270752,939.168457 1406.174316,946.386780 
z"/>
<path fill="#68696B" opacity="1.000000" stroke="none" 
	d="
M676.888306,971.965210 
	C679.315125,985.934509 687.896484,995.083374 699.433411,1000.890076 
	C711.499512,1006.963196 733.002869,1005.867920 742.831787,993.550720 
	C747.650452,987.512207 753.325500,985.483826 760.628662,987.547485 
	C758.723083,1000.662170 734.473694,1015.520935 715.630981,1014.982117 
	C687.469116,1014.176819 668.602478,994.879761 665.104858,971.660217 
	C660.078674,938.292542 680.444580,915.992920 705.222046,910.256775 
	C729.004944,904.750854 753.300903,917.757568 761.888550,937.970093 
	C758.058777,937.970093 754.468689,938.123596 750.905701,937.880493 
	C749.771545,937.803223 748.357361,936.928162 747.667297,935.982971 
	C738.525696,923.462524 725.827026,918.747192 710.958374,920.170105 
	C702.887634,920.942444 695.355164,924.554382 689.434082,930.218445 
	C677.609802,941.529236 673.586487,955.493713 676.888306,971.965210 
z"/>
<path fill="#68696B" opacity="1.000000" stroke="none" 
	d="
M421.784973,912.793213 
	C434.763885,946.190491 447.541962,979.216797 460.315430,1012.231262 
	C459.264801,1012.658813 458.973541,1012.863770 458.667328,1012.889404 
	C449.508423,1013.655029 449.426788,1013.684387 446.150146,1005.386658 
	C443.614319,998.964966 441.246826,992.473999 438.938446,985.966309 
	C437.717010,982.522827 436.028015,980.735657 431.830139,980.872864 
	C420.515686,981.242737 409.177216,981.170044 397.856689,980.908752 
	C393.776581,980.814636 391.991547,982.380920 390.819489,986.107117 
	C388.800385,992.526184 386.442322,998.853027 383.927185,1005.098022 
	C380.412140,1013.825806 380.294586,1013.778442 369.626343,1012.498901 
	C382.631256,978.934814 395.553192,945.584839 408.402527,912.422302 
	C412.993378,912.422302 417.288757,912.422302 421.784973,912.793213 
M429.074463,971.034058 
	C430.291351,970.895386 431.508240,970.756714 433.004883,970.586182 
	C427.001038,954.785889 421.180145,939.467102 414.856018,922.823975 
	C408.567719,939.507385 402.767914,954.894836 396.684265,971.035400 
	C407.667572,971.035400 417.916046,971.035400 429.074463,971.034058 
z"/>
<path fill="#68696B" opacity="1.000000" stroke="none" 
	d="
M774.668091,952.696960 
	C787.521484,931.296143 812.124634,929.285095 827.499634,938.673035 
	C850.106140,952.476685 853.294495,975.450562 842.200500,995.052551 
	C829.917358,1016.755737 804.817627,1020.241882 787.219421,1008.795837 
	C767.560608,996.009583 763.909607,972.046448 774.668091,952.696960 
M824.895264,999.542786 
	C836.206482,989.167725 839.934387,976.912659 834.624878,962.123047 
	C829.257385,947.172058 810.826843,939.250488 796.547241,946.241455 
	C784.310303,952.232239 779.807739,962.744507 779.983887,975.836060 
	C780.136719,987.198425 785.299561,995.870239 794.937683,1001.275940 
	C804.683716,1006.742126 814.754517,1006.148560 824.895264,999.542786 
z"/>
<path fill="#68696B" opacity="1.000000" stroke="none" 
	d="
M1541.653687,1006.306763 
	C1533.969238,1000.753540 1529.762939,993.239807 1527.412720,984.697266 
	C1525.128662,976.395630 1525.650757,967.992065 1528.594360,959.940979 
	C1533.390625,946.822815 1548.411377,933.830994 1564.508911,933.628296 
	C1583.531128,933.388855 1601.414795,947.201843 1604.481689,965.095581 
	C1608.200439,986.792664 1599.175537,1005.849426 1577.139160,1013.176086 
	C1564.809937,1017.275391 1552.386475,1015.560303 1541.653687,1006.306763 
M1593.023193,964.726196 
	C1587.801025,945.813232 1569.320801,940.909607 1556.980835,945.176636 
	C1544.174561,949.604980 1534.441772,964.122742 1537.867676,980.552246 
	C1540.287720,992.157104 1546.770630,1000.415649 1557.802002,1003.568115 
	C1568.333862,1006.577759 1578.096313,1004.297180 1586.317017,995.544434 
	C1594.760620,986.554626 1594.861938,976.452026 1593.023193,964.726196 
z"/>
<path fill="#68696B" opacity="1.000000" stroke="none" 
	d="
M1359.997192,835.000000 
	C1359.997192,845.115540 1359.997192,854.731018 1359.997192,864.668945 
	C1354.927734,864.668945 1350.353882,864.668945 1345.388184,864.668945 
	C1345.388184,817.633362 1345.388184,770.648010 1345.388184,723.331421 
	C1350.064697,723.331421 1354.638428,723.331421 1359.997192,723.331421 
	C1359.997192,760.418762 1359.997192,797.459412 1359.997192,835.000000 
z"/>
<path fill="#68696B" opacity="1.000000" stroke="none" 
	d="
M1181.999146,977.000000 
	C1181.999146,989.114868 1181.999146,1000.729736 1181.999146,1012.668823 
	C1178.269653,1012.668823 1175.023315,1012.668823 1171.384644,1012.668823 
	C1171.174927,1010.790527 1170.961792,1008.881165 1170.712280,1006.646484 
	C1159.835327,1016.666382 1147.148071,1016.438416 1134.429077,1012.521790 
	C1125.403564,1009.742432 1120.672852,1002.317261 1119.090210,993.132141 
	C1118.423096,989.260071 1118.078979,985.288452 1118.047852,981.358521 
	C1117.930176,966.426086 1118.000488,951.492126 1118.000488,936.283447 
	C1121.490723,936.283447 1124.400635,936.283447 1127.998779,936.283447 
	C1127.998779,938.214966 1127.998779,939.984253 1127.998901,941.753540 
	C1127.999390,955.070801 1127.624146,968.402466 1128.134521,981.700195 
	C1128.464966,990.313232 1129.742798,999.278137 1139.370361,1003.045288 
	C1153.172485,1008.445923 1171.362915,1001.725037 1171.054932,982.572815 
	C1170.814209,967.597229 1171.066895,952.613586 1171.116699,937.633606 
	C1171.117676,937.329346 1171.318481,937.025757 1171.553223,936.362793 
	C1174.663208,936.362793 1177.907349,936.362793 1181.999146,936.362793 
	C1181.999146,949.692200 1181.999146,963.096069 1181.999146,977.000000 
z"/>
<path fill="#68696B" opacity="1.000000" stroke="none" 
	d="
M1195.000366,974.000000 
	C1195.000366,961.219055 1195.000366,948.938171 1195.000366,936.331787 
	C1198.728149,936.331787 1201.974609,936.331787 1205.616699,936.331787 
	C1205.824219,938.206787 1206.035522,940.116516 1206.325317,942.734497 
	C1213.702026,935.453979 1222.649780,934.811646 1232.056030,934.903931 
	C1245.921509,935.040039 1257.932129,944.003174 1258.754028,959.327881 
	C1259.696655,976.902466 1258.972656,994.566406 1258.972656,1012.594238 
	C1255.628540,1012.594238 1252.604492,1012.594238 1248.999023,1012.594238 
	C1248.999023,1005.492493 1249.117676,998.545532 1248.971436,991.604126 
	C1248.748047,981.007874 1248.812744,970.373535 1247.872070,959.834167 
	C1247.037598,950.484558 1240.013306,945.249084 1230.587158,944.931763 
	C1221.641479,944.630737 1213.536377,946.004272 1209.001831,954.704956 
	C1207.322876,957.926453 1206.217041,961.817078 1206.131592,965.432800 
	C1205.805542,979.241943 1206.001587,993.063293 1206.002563,1006.880127 
	C1206.002686,1008.680359 1206.002563,1010.480591 1206.002563,1012.638550 
	C1202.338135,1012.638550 1199.093628,1012.638550 1195.000366,1012.638550 
	C1195.000366,999.976440 1195.000366,987.238220 1195.000366,974.000000 
z"/>
<path fill="#68696B" opacity="1.000000" stroke="none" 
	d="
M1318.522705,1012.932129 
	C1306.963257,1006.933777 1298.170898,998.938721 1294.640381,986.288879 
	C1286.157104,955.894104 1311.324463,928.762878 1340.914429,934.738831 
	C1354.162109,937.414307 1362.394165,945.314148 1368.225708,956.681458 
	C1368.641235,957.491089 1368.688599,958.489441 1369.046265,959.979675 
	C1365.510620,959.979675 1362.351074,960.262695 1359.288818,959.839783 
	C1358.071655,959.671631 1356.837402,958.100403 1356.006348,956.895142 
	C1346.207520,942.682312 1329.432983,940.020935 1317.086426,948.566895 
	C1305.727783,956.429016 1300.992065,970.941284 1305.769043,984.466858 
	C1310.764526,998.611328 1319.753906,1004.192139 1331.357910,1004.811157 
	C1340.589111,1005.303528 1349.476929,1002.273804 1354.242065,993.841980 
	C1357.876709,987.410583 1362.559570,987.444031 1368.954468,988.427429 
	C1368.715942,989.761475 1368.779907,991.226746 1368.199707,992.363098 
	C1362.922485,1002.699341 1355.532959,1010.670288 1343.800537,1013.640320 
	C1335.444092,1015.755737 1327.164795,1014.991516 1318.522705,1012.932129 
z"/>
<path fill="#68696B" opacity="1.000000" stroke="none" 
	d="
M474.296204,968.514038 
	C474.123291,983.403259 474.123291,997.862427 474.123291,1012.657959 
	C470.624420,1012.657959 467.709381,1012.657959 464.395630,1012.657959 
	C464.395630,987.291748 464.395630,961.927979 464.395630,936.281738 
	C467.500488,936.281738 470.417755,936.281738 473.670868,936.281738 
	C473.865875,938.637085 474.050140,940.862915 474.298340,943.861023 
	C483.993439,933.691833 495.734161,933.560425 507.644379,935.958496 
	C519.097107,938.264526 527.307983,947.542908 527.854553,959.146912 
	C528.667053,976.396667 528.627502,993.686646 528.928406,1010.959900 
	C528.936462,1011.422852 528.688293,1011.890320 528.473755,1012.666260 
	C525.243652,1012.666260 522.000671,1012.666260 518.000916,1012.666260 
	C518.000916,1010.850769 518.000916,1009.088928 518.000916,1007.327087 
	C518.000854,994.830627 518.093811,982.333008 517.944031,969.838318 
	C517.898987,966.080383 517.761719,962.147888 516.654236,958.612488 
	C513.715576,949.231567 510.344696,945.416382 499.323334,945.077332 
	C485.420807,944.649597 478.845306,948.929199 475.687408,959.831177 
	C474.920807,962.477722 474.856415,965.327576 474.296204,968.514038 
z"/>
<path fill="#68696B" opacity="1.000000" stroke="none" 
	d="
M1380.000488,828.000000 
	C1380.000488,792.909912 1380.000488,758.319885 1380.000488,723.366394 
	C1384.665283,723.366394 1388.906738,723.366394 1393.576416,723.366394 
	C1393.576416,770.296387 1393.576416,817.282043 1393.576416,864.634033 
	C1389.334717,864.634033 1385.093018,864.634033 1380.000488,864.634033 
	C1380.000488,852.636536 1380.000488,840.568237 1380.000488,828.000000 
z"/>
<path fill="#68696B" opacity="1.000000" stroke="none" 
	d="
M1632.061035,949.995239 
	C1626.831665,955.578857 1624.744263,961.784607 1624.917358,969.148010 
	C1625.214722,981.794250 1624.999512,994.452576 1624.999390,1007.105835 
	C1624.999390,1008.893921 1624.999390,1010.682007 1624.999390,1012.721313 
	C1621.500122,1012.721313 1618.589478,1012.721313 1615.337891,1012.721313 
	C1615.337891,987.309021 1615.337891,962.081238 1615.337891,936.426392 
	C1618.342773,936.426392 1621.379395,936.426392 1624.711914,936.426392 
	C1624.886475,938.344177 1625.058838,940.236023 1625.316772,943.068481 
	C1633.542236,934.923035 1643.311523,934.609680 1653.363159,934.956482 
	C1666.067017,935.394836 1677.170654,944.827087 1677.778687,957.375183 
	C1678.660889,975.577637 1678.004761,993.854553 1678.004761,1012.552124 
	C1675.709717,1012.552124 1672.685669,1012.552124 1669.000488,1012.552124 
	C1669.000488,1008.251648 1669.081787,1003.973999 1668.985229,999.700439 
	C1668.693115,986.769287 1668.472168,973.833984 1667.947998,960.911499 
	C1667.601196,952.363220 1659.890137,945.235352 1651.339844,944.992920 
	C1644.520142,944.799500 1637.693359,944.499268 1632.061035,949.995239 
z"/>
<path fill="#68696B" opacity="1.000000" stroke="none" 
	d="
M1082.999512,762.105103 
	C1082.999634,765.536499 1082.999634,768.496643 1082.999634,771.687500 
	C1073.029907,772.271912 1064.905518,775.627991 1061.612793,785.168274 
	C1059.821777,790.357849 1059.185303,796.153931 1059.111328,801.690979 
	C1058.832764,822.500732 1058.999634,843.316467 1058.999634,864.563965 
	C1054.355713,864.563965 1049.997192,864.563965 1045.312866,864.563965 
	C1045.312866,829.230774 1045.312866,793.995850 1045.312866,758.380371 
	C1049.300537,758.380371 1053.209106,758.380371 1057.684082,758.380371 
	C1057.684082,761.502808 1057.684082,764.738831 1057.684082,768.173645 
	C1061.788574,765.029846 1065.170044,761.724548 1069.172852,759.577515 
	C1073.078491,757.482544 1077.619019,756.571106 1082.999390,754.764526 
	C1082.999390,758.090271 1082.999390,759.862061 1082.999512,762.105103 
z"/>
<path fill="#68696B" opacity="1.000000" stroke="none" 
	d="
M959.610596,495.887421 
	C954.732178,486.824677 949.853699,477.761963 945.387329,468.258942 
	C947.237915,466.494751 948.957947,465.371368 950.068054,463.813385 
	C955.951599,455.555908 961.615295,447.141937 967.484741,438.874268 
	C972.951355,431.173859 978.580566,423.588837 984.138184,415.953003 
	C990.688965,422.932526 995.164368,431.100739 997.783203,440.753021 
	C991.850220,449.224365 986.044617,457.059601 980.492432,465.070557 
	C973.424622,475.268494 966.561890,485.608612 959.610596,495.887421 
z"/>
<path fill="#646162" opacity="1.000000" stroke="none" 
	d="
M959.747681,496.181152 
	C966.561890,485.608612 973.424622,475.268494 980.492432,465.070557 
	C986.044617,457.059601 991.850220,449.224365 997.836609,441.129852 
	C1002.386780,448.707733 1006.643616,456.466888 1010.796997,464.858124 
	C998.009949,483.620026 985.326294,501.749878 972.642639,519.879700 
	C968.390015,512.078064 964.137329,504.276489 959.747681,496.181152 
z"/>
<path fill="#68696B" opacity="1.000000" stroke="none" 
	d="
M1313.307373,864.960815 
	C1312.229370,863.789124 1311.090454,862.642273 1311.087646,861.492676 
	C1311.006348,827.709045 1311.036987,793.925171 1311.065308,760.141296 
	C1311.065674,759.668152 1311.265869,759.195129 1311.452759,758.368408 
	C1316.000000,758.368408 1320.572998,758.368408 1325.575928,758.368408 
	C1325.575928,793.634521 1325.575928,828.960876 1325.575928,864.984375 
	C1321.639160,864.984375 1317.707642,864.984375 1313.307373,864.960815 
z"/>
<path fill="#7B797A" opacity="1.000000" stroke="none" 
	d="
M984.131409,415.584320 
	C978.580566,423.588837 972.951355,431.173859 967.484741,438.874268 
	C961.615295,447.141937 955.951599,455.555908 950.068054,463.813385 
	C948.957947,465.371368 947.237915,466.494751 945.473572,467.896423 
	C941.611938,461.641632 935.880676,458.146118 929.288757,455.104340 
	C937.421387,442.559326 945.667480,430.691376 953.707214,418.685211 
	C957.363953,413.224365 960.612122,407.489899 964.045593,401.879517 
	C972.472046,403.715027 978.399597,409.312927 984.131409,415.584320 
z"/>
<path fill="#585656" opacity="1.000000" stroke="none" 
	d="
M972.766602,520.179565 
	C985.326294,501.749878 998.009949,483.620026 1010.876953,465.200867 
	C1014.924561,472.048279 1018.788940,479.185089 1022.424988,486.751465 
	C1021.270142,488.088196 1020.172974,488.876099 1019.442566,489.920471 
	C1008.716064,505.258423 998.065430,520.649536 987.307495,535.965271 
	C986.223877,537.507812 984.560791,538.643250 983.166565,539.967590 
	C979.741211,533.471497 976.315857,526.975403 972.766602,520.179565 
z"/>
<path fill="#858484" opacity="1.000000" stroke="none" 
	d="
M963.843140,401.573608 
	C960.612122,407.489899 957.363953,413.224365 953.707214,418.685211 
	C945.667480,430.691376 937.421387,442.559326 929.106140,454.798584 
	C922.569397,453.737274 916.185913,452.361053 909.392212,450.906982 
	C910.055115,448.287537 910.735046,445.475830 912.265198,443.248016 
	C922.596069,428.206482 933.106934,413.288605 943.845703,398.137878 
	C950.871338,397.663605 957.462524,398.252899 963.843140,401.573608 
z"/>
<path fill="#464243" opacity="1.000000" stroke="none" 
	d="
M1042.847900,525.620117 
	C1039.091187,530.526489 1035.080078,534.884888 1031.652466,539.661987 
	C1023.406006,551.155334 1015.458740,562.863037 1007.313538,574.429932 
	C1006.396790,575.731628 1004.985046,576.684814 1003.481506,577.880737 
	C999.878723,571.857483 996.597290,565.752930 993.557190,559.221069 
	C995.820129,556.427002 998.035645,554.197937 999.831726,551.670898 
	C1010.784302,536.260925 1021.641479,520.783142 1032.530518,505.328003 
	C1035.973267,511.972839 1039.416138,518.617676 1042.847900,525.620117 
z"/>
<path fill="#68696B" opacity="1.000000" stroke="none" 
	d="
M1485.999146,971.000000 
	C1485.999146,985.119507 1485.999146,998.739075 1485.999146,1012.676514 
	C1482.587646,1012.676514 1479.673584,1012.676514 1476.246582,1012.676514 
	C1476.246582,990.719177 1476.246582,968.807983 1476.246582,946.199341 
	C1471.057739,946.199341 1466.349976,946.199341 1461.329956,946.199341 
	C1461.329956,942.595764 1461.329956,939.681519 1461.329956,936.245300 
	C1465.942871,936.245300 1470.529297,936.245300 1475.812256,936.245300 
	C1475.812256,928.050842 1475.812256,920.337158 1475.812256,912.323914 
	C1479.413208,912.323914 1482.327026,912.323914 1485.763428,912.323914 
	C1485.763428,919.950317 1485.763428,927.536804 1485.763428,935.817383 
	C1490.630737,935.817383 1495.004150,935.817383 1499.681641,935.817383 
	C1499.681641,939.420044 1499.681641,942.334229 1499.681641,945.769470 
	C1495.374390,945.769470 1491.120483,945.769470 1485.999146,945.769470 
	C1485.999146,954.337891 1485.999146,962.418945 1485.999146,971.000000 
z"/>
<path fill="#4F4C4C" opacity="1.000000" stroke="none" 
	d="
M1032.367188,505.037537 
	C1021.641479,520.783142 1010.784302,536.260925 999.831726,551.670898 
	C998.035645,554.197937 995.820129,556.427002 993.481445,558.881348 
	C989.876587,552.863281 986.588867,546.757690 983.233887,540.309875 
	C984.560791,538.643250 986.223877,537.507812 987.307495,535.965271 
	C998.065430,520.649536 1008.716064,505.258423 1019.442566,489.920471 
	C1020.172974,488.876099 1021.270142,488.088196 1022.513672,487.083191 
	C1025.955078,492.905975 1029.079346,498.826538 1032.367188,505.037537 
z"/>
<path fill="#3C3839" opacity="1.000000" stroke="none" 
	d="
M992.512939,633.939697 
	C991.305298,637.080627 989.927979,640.466614 987.907776,643.411560 
	C979.452942,655.736633 970.776489,667.909485 962.266418,680.197021 
	C961.256226,681.655579 960.768433,683.476013 960.000244,685.483643 
	C952.611389,685.868286 945.260803,685.898071 937.527222,685.539856 
	C943.918152,675.110474 950.739990,665.100952 957.449402,655.016663 
	C962.032959,648.127502 966.459778,641.134033 970.956665,634.187195 
	C977.987000,634.118835 985.017273,634.050415 992.512939,633.939697 
z"/>
<path fill="#464243" opacity="1.000000" stroke="none" 
	d="
M970.493164,634.143677 
	C966.459778,641.134033 962.032959,648.127502 957.449402,655.016663 
	C950.739990,665.100952 943.918152,675.110474 937.060181,685.482666 
	C930.121033,686.096863 929.982178,686.076782 931.003662,679.018311 
	C932.492981,668.728027 933.912354,658.412842 935.904358,648.214233 
	C937.947998,637.751465 942.831360,634.098267 953.564087,634.017883 
	C959.052124,633.976807 964.541138,634.068542 970.493164,634.143677 
z"/>
<path fill="#68696B" opacity="1.000000" stroke="none" 
	d="
M1283.993896,990.000000 
	C1283.993896,997.781067 1283.993896,1005.062073 1283.993896,1012.666321 
	C1280.277344,1012.666321 1277.036499,1012.666321 1273.394165,1012.666321 
	C1273.394165,987.320190 1273.394165,961.995178 1273.394165,936.334351 
	C1276.720215,936.334351 1279.961060,936.334351 1283.993896,936.334351 
	C1283.993896,954.062988 1283.993896,971.781494 1283.993896,990.000000 
z"/>
<path fill="#68696B" opacity="1.000000" stroke="none" 
	d="
M1517.000000,990.000000 
	C1517.000000,997.781250 1517.000000,1005.062500 1517.000000,1012.666870 
	C1513.277222,1012.666870 1510.034058,1012.666870 1506.392822,1012.666870 
	C1506.392822,987.322632 1506.392822,961.995605 1506.392822,936.333557 
	C1509.718628,936.333557 1512.960327,936.333557 1517.000000,936.333557 
	C1517.000000,954.061035 1517.000000,971.780518 1517.000000,990.000000 
z"/>
<path fill="#68696B" opacity="1.000000" stroke="none" 
	d="
M1311.005005,740.830444 
	C1311.004639,734.756897 1311.004639,729.165405 1311.004639,723.294250 
	C1316.127441,723.294250 1320.688721,723.294250 1325.626221,723.294250 
	C1325.626221,730.745178 1325.626221,738.080322 1325.626221,745.709229 
	C1320.861084,745.709229 1316.300659,745.709229 1311.354980,745.709229 
	C1311.232910,744.174438 1311.119141,742.743469 1311.005005,740.830444 
z"/>
<path fill="#68696B" opacity="1.000000" stroke="none" 
	d="
M1283.437744,912.609619 
	C1283.754150,917.715942 1283.754150,922.481812 1283.754150,927.621582 
	C1280.364624,927.621582 1277.134155,927.621582 1273.450195,927.621582 
	C1273.450195,922.752563 1273.450195,917.745056 1273.450195,912.269226 
	C1276.652344,912.269226 1279.886719,912.269226 1283.437744,912.609619 
z"/>
<path fill="#68696B" opacity="1.000000" stroke="none" 
	d="
M1506.148193,913.388428 
	C1509.558350,912.520264 1512.878662,912.109131 1516.636475,911.643860 
	C1516.636475,917.301880 1516.636475,922.192017 1516.636475,927.544006 
	C1513.403931,927.544006 1510.058228,927.544006 1506.058350,927.544006 
	C1506.058350,922.993591 1506.058350,918.419495 1506.148193,913.388428 
z"/>
<path fill="#000000" opacity="1.000000" stroke="none" 
	d="
M1342.276245,430.641113 
	C1347.781616,433.989807 1351.077393,438.474792 1351.991577,444.513855 
	C1352.890625,450.453491 1353.609497,456.420380 1354.454956,462.731018 
	C1322.249023,462.731018 1290.861206,462.731018 1259.212891,462.731018 
	C1258.372314,451.446411 1259.172974,440.916718 1267.902100,432.572357 
	C1273.840454,426.895691 1281.426025,425.472107 1289.033081,425.131195 
	C1300.339233,424.624451 1311.731567,424.385437 1322.995850,425.238007 
	C1329.419434,425.724152 1335.661865,428.603607 1342.276245,430.641113 
z"/>
<path fill="#000000" opacity="1.000000" stroke="none" 
	d="
M618.471802,851.735352 
	C599.630737,842.505615 590.602905,827.259521 592.241699,807.147095 
	C594.255188,782.435242 617.631042,760.955627 646.101135,771.375671 
	C658.357971,775.861694 666.289001,785.516357 670.467407,798.618958 
	C674.965454,812.723389 672.701782,825.369629 664.834656,837.016418 
	C657.318848,848.143188 646.017151,854.002869 632.667908,854.772949 
	C628.124390,855.035034 623.444031,852.923950 618.471802,851.735352 
z"/>
<path fill="#000000" opacity="1.000000" stroke="none" 
	d="
M1851.763428,795.572632 
	C1852.153564,797.070618 1852.453003,798.181580 1852.637207,799.311279 
	C1852.793213,800.269531 1852.816162,801.249451 1852.931519,802.616150 
	C1826.671265,802.616150 1800.628540,802.616150 1774.252075,802.616150 
	C1775.369751,791.505493 1780.156250,782.184692 1788.980957,775.799988 
	C1802.630127,765.924561 1823.365723,765.795837 1837.148926,775.430786 
	C1844.366821,780.476440 1847.503662,788.099121 1851.763428,795.572632 
z"/>
<path fill="#000000" opacity="1.000000" stroke="none" 
	d="
M1230.851074,769.597107 
	C1240.605225,767.470032 1250.030518,767.870361 1258.787720,771.530212 
	C1272.261353,777.161255 1278.403809,788.800720 1282.121338,802.653320 
	C1255.287109,802.653320 1228.886963,802.653320 1202.182495,802.653320 
	C1206.076538,786.781433 1213.452026,774.173462 1230.851074,769.597107 
z"/>
<path fill="#000000" opacity="1.000000" stroke="none" 
	d="
M394.690002,775.675598 
	C408.469482,766.472473 422.881927,766.102356 437.216705,772.323242 
	C449.113281,777.486023 456.247864,790.290222 457.779388,802.580261 
	C431.597473,802.580261 405.466003,802.580261 378.929077,802.580261 
	C380.997375,791.621094 385.557861,782.537598 394.690002,775.675598 
z"/>
<path fill="#000000" opacity="1.000000" stroke="none" 
	d="
M1462.184570,854.909424 
	C1456.910156,853.427490 1451.985718,852.223450 1447.240845,850.519348 
	C1436.782715,846.763428 1430.142212,838.982605 1426.113525,828.970337 
	C1419.357666,812.180115 1422.096191,796.203857 1433.376953,782.694153 
	C1446.015259,767.558594 1466.860107,763.829651 1483.439331,774.503479 
	C1495.831055,782.481323 1503.498413,794.845520 1503.814941,809.981567 
	C1504.175537,827.217834 1493.217407,845.959656 1475.437378,851.919312 
	C1471.289917,853.309570 1466.896484,853.966309 1462.184570,854.909424 
z"/>
<path fill="#000000" opacity="1.000000" stroke="none" 
	d="
M586.069580,945.571960 
	C600.996399,952.061340 609.514404,968.808228 604.958557,982.682434 
	C599.428162,999.524353 582.936829,1010.936829 565.195129,1001.887329 
	C551.092041,994.693726 546.615051,981.250610 549.638672,967.089050 
	C552.316956,954.544983 560.722900,946.628296 573.520142,944.433228 
	C577.428406,943.762939 581.660706,944.982239 586.069580,945.571960 
z"/>
<path fill="#000000" opacity="1.000000" stroke="none" 
	d="
M1406.539185,946.238831 
	C1426.270752,939.168457 1439.497070,951.139587 1444.558105,965.890747 
	C1450.294678,982.610779 1436.859009,1004.298218 1418.067261,1004.892883 
	C1403.633545,1005.349670 1392.277344,996.966858 1389.237427,981.630554 
	C1386.224731,966.432068 1391.701660,954.172852 1406.539185,946.238831 
z"/>
<path fill="#000000" opacity="1.000000" stroke="none" 
	d="
M428.619476,971.034729 
	C417.916046,971.035400 407.667572,971.035400 396.684265,971.035400 
	C402.767914,954.894836 408.567719,939.507385 414.856018,922.823975 
	C421.180145,939.467102 427.001038,954.785889 433.004883,970.586182 
	C431.508240,970.756714 430.291351,970.895386 428.619476,971.034729 
z"/>
<path fill="#000000" opacity="1.000000" stroke="none" 
	d="
M824.579712,999.730469 
	C814.754517,1006.148560 804.683716,1006.742126 794.937683,1001.275940 
	C785.299561,995.870239 780.136719,987.198425 779.983887,975.836060 
	C779.807739,962.744507 784.310303,952.232239 796.547241,946.241455 
	C810.826843,939.250488 829.257385,947.172058 834.624878,962.123047 
	C839.934387,976.912659 836.206482,989.167725 824.579712,999.730469 
z"/>
<path fill="#000000" opacity="1.000000" stroke="none" 
	d="
M1593.110352,965.143188 
	C1594.861938,976.452026 1594.760620,986.554626 1586.317017,995.544434 
	C1578.096313,1004.297180 1568.333862,1006.577759 1557.802002,1003.568115 
	C1546.770630,1000.415649 1540.287720,992.157104 1537.867676,980.552246 
	C1534.441772,964.122742 1544.174561,949.604980 1556.980835,945.176636 
	C1569.320801,940.909607 1587.801025,945.813232 1593.110352,965.143188 
z"/>
</svg>